<svg width="374" height="341" viewBox="0 0 374 341" fill="none" xmlns="http://www.w3.org/2000/svg">
<rect width="119.247" height="48.3023" rx="24.1511" transform="matrix(0.74183 -0.670588 0.664871 0.746958 0 142.013)" fill="url(#paint0_linear_248_1065)"/>
<path d="M61.4737 129.523L55.9815 117.018L57.9912 115.202L69.7325 122.058L68.2837 123.367L57.5434 117.135L57.9039 116.809L62.9225 128.214L61.4737 129.523ZM61.1513 125.872L59.9785 124.554L64.9992 120.016L66.172 121.333L61.1513 125.872ZM70.9303 120.975L64.4677 113.715L65.7095 112.592L67.2773 114.353L66.9003 114.282C66.7819 113.968 66.7081 113.651 66.679 113.329C66.6459 113.003 66.667 112.693 66.7422 112.399C66.805 112.099 66.9158 111.813 67.0745 111.54C67.2337 111.259 67.4253 111.005 67.6492 110.778C67.8691 110.547 68.1061 110.353 68.3601 110.196L69.5329 111.514C69.2412 111.664 68.9626 111.884 68.6972 112.172C68.4363 112.456 68.2555 112.786 68.1548 113.16C68.0594 113.513 68.0387 113.855 68.0927 114.186C68.1511 114.514 68.2671 114.834 68.4406 115.146C68.6101 115.454 68.8225 115.751 69.0778 116.038L72.339 119.702L70.9303 120.975ZM80.2202 112.577C79.8459 113.077 79.4348 113.518 78.9866 113.899C78.5384 114.279 78.0732 114.546 77.5908 114.699C77.1085 114.852 76.6309 114.839 76.1581 114.66C75.7351 114.5 75.3792 114.272 75.0906 113.975C74.8025 113.669 74.4829 113.319 74.1318 112.925L68.4173 106.505L69.8193 105.237L75.474 111.59C75.7333 111.882 75.961 112.133 76.1569 112.344C76.3573 112.551 76.5656 112.69 76.7818 112.762C77.1894 112.895 77.5847 112.824 77.9678 112.551C78.3513 112.269 78.7491 111.881 79.161 111.387L80.2202 112.577ZM69.8357 110.9L68.8304 109.771L73.7576 105.317L74.7629 106.446L69.8357 110.9ZM84.6713 108.905C83.7945 109.698 82.9066 110.149 82.0076 110.258C81.1086 110.367 80.2817 110.124 79.5267 109.528L80.758 108.015C81.1821 108.311 81.6522 108.424 82.1681 108.354C82.6845 108.275 83.1831 108.018 83.6638 107.584C84.1 107.19 84.3607 106.792 84.4459 106.392C84.5356 105.987 84.4408 105.628 84.1616 105.314C83.998 105.13 83.8219 105.023 83.6331 104.991C83.4448 104.951 83.1668 105.004 82.7991 105.151C82.4314 105.297 81.8971 105.549 81.1962 105.908C80.4339 106.306 79.7885 106.578 79.2599 106.724C78.7319 106.862 78.2802 106.878 77.905 106.772C77.5303 106.658 77.1854 106.424 76.8702 106.07C76.4793 105.631 76.2539 105.143 76.1941 104.606C76.1344 104.07 76.2339 103.523 76.4927 102.966C76.756 102.404 77.1703 101.868 77.7356 101.357C78.2875 100.858 78.8571 100.501 79.4444 100.285C80.0318 100.07 80.6026 100.003 81.1568 100.084C81.7071 100.161 82.2005 100.39 82.6368 100.772L81.4415 102.326C81.0813 102.021 80.6735 101.892 80.2181 101.94C79.7626 101.987 79.3065 102.201 78.8499 102.582C78.4111 102.946 78.1322 103.328 78.0132 103.726C77.8903 104.121 77.9524 104.457 78.1998 104.735C78.3434 104.896 78.514 104.988 78.7117 105.012C78.9138 105.031 79.2054 104.962 79.5864 104.803C79.9675 104.645 80.5045 104.382 81.1974 104.014C81.9424 103.624 82.5787 103.364 83.1063 103.235C83.6299 103.101 84.0851 103.098 84.4718 103.226C84.8589 103.345 85.218 103.591 85.5492 103.963C86.1874 104.68 86.4277 105.478 86.2699 106.356C86.1167 107.231 85.5838 108.081 84.6713 108.905Z" fill="black"/>
<path d="M35.3485 135.978C35.5571 135.79 35.5747 135.467 35.3878 135.257C35.2008 135.047 34.8801 135.029 34.6715 135.218C34.4629 135.406 34.4453 135.73 34.6323 135.94C34.8192 136.15 35.1399 136.167 35.3485 135.978Z" fill="black"/>
<path d="M41.0784 136.289C41.287 136.1 41.3045 135.777 41.1176 135.567C40.9306 135.357 40.61 135.34 40.4014 135.528C40.1927 135.717 40.1752 136.04 40.3621 136.25C40.5491 136.46 40.8697 136.478 41.0784 136.289Z" fill="black"/>
<path d="M34.1222 145.322C34.3308 145.134 34.3484 144.811 34.1614 144.6C33.9745 144.39 33.6538 144.373 33.4452 144.562C33.2366 144.75 33.219 145.073 33.4059 145.283C33.5929 145.493 33.9136 145.511 34.1222 145.322Z" fill="black"/>
<path d="M32.2482 140.154C32.4568 139.965 32.4743 139.642 32.2874 139.432C32.1005 139.222 31.7798 139.204 31.5712 139.393C31.3626 139.582 31.345 139.905 31.5319 140.115C31.7189 140.325 32.0395 140.342 32.2482 140.154Z" fill="black"/>
<path d="M44.3702 148.411C42.3665 150.223 39.7317 151.158 37.0453 151.013C34.3589 150.867 31.8411 149.652 30.0456 147.635C28.2501 145.618 27.3241 142.964 27.4712 140.257C27.6184 137.549 28.8267 135.011 30.8304 133.2C32.834 131.389 35.3975 130.373 37.9569 130.376C40.5163 130.379 42.862 131.4 44.478 133.216C45.3757 134.224 45.8387 135.551 45.7651 136.905C45.6915 138.259 45.0874 139.528 44.0856 140.433L42.3858 141.97C42.1402 142.192 41.9608 142.478 41.8676 142.797C41.7745 143.116 41.7712 143.454 41.8582 143.775C41.9452 144.095 42.119 144.384 42.3602 144.611C42.6013 144.837 42.9003 144.991 43.2237 145.056L43.7211 145.155C44.0444 145.22 44.3435 145.374 44.5846 145.6C44.8258 145.826 44.9996 146.116 45.0866 146.436C45.1736 146.756 45.1703 147.095 45.0771 147.414C44.984 147.732 44.8046 148.019 44.559 148.241L44.3702 148.411Z" stroke="black" stroke-width="1.83333" stroke-linecap="round" stroke-linejoin="round"/>
<path d="M35.3485 135.978C35.5571 135.79 35.5747 135.467 35.3878 135.257C35.2008 135.047 34.8801 135.029 34.6715 135.218C34.4629 135.406 34.4453 135.73 34.6323 135.94C34.8192 136.15 35.1399 136.167 35.3485 135.978Z" stroke="black" stroke-width="1.83333" stroke-linecap="round" stroke-linejoin="round"/>
<path d="M41.0784 136.289C41.287 136.1 41.3045 135.777 41.1176 135.567C40.9306 135.357 40.61 135.34 40.4014 135.528C40.1927 135.717 40.1752 136.04 40.3621 136.25C40.5491 136.46 40.8697 136.478 41.0784 136.289Z" stroke="black" stroke-width="1.83333" stroke-linecap="round" stroke-linejoin="round"/>
<path d="M34.1222 145.322C34.3308 145.134 34.3484 144.811 34.1614 144.6C33.9745 144.39 33.6538 144.373 33.4452 144.562C33.2366 144.75 33.219 145.073 33.4059 145.283C33.5929 145.493 33.9136 145.511 34.1222 145.322Z" stroke="black" stroke-width="1.83333" stroke-linecap="round" stroke-linejoin="round"/>
<path d="M32.2482 140.154C32.4568 139.965 32.4743 139.642 32.2874 139.432C32.1005 139.222 31.7798 139.204 31.5712 139.393C31.3626 139.582 31.345 139.905 31.5319 140.115C31.7189 140.325 32.0395 140.342 32.2482 140.154Z" stroke="black" stroke-width="1.83333" stroke-linecap="round" stroke-linejoin="round"/>
<rect width="172.878" height="48.3426" rx="24.1713" transform="matrix(0.970306 -0.241881 0.237106 0.971484 59.4361 142.776)" fill="url(#paint1_linear_248_1065)"/>
<path d="M128.239 157.542L125.733 147.278L121.783 148.263L121.386 146.636L131.011 144.237L131.408 145.863L127.457 146.848L129.962 157.112L128.239 157.542ZM137.923 155.391C137.038 155.611 136.213 155.613 135.448 155.395C134.687 155.17 134.035 154.757 133.492 154.156C132.953 153.549 132.571 152.786 132.347 151.866C132.109 150.892 132.084 150.002 132.273 149.196C132.466 148.388 132.843 147.707 133.401 147.153C133.96 146.6 134.674 146.214 135.543 145.998C136.45 145.772 137.274 145.791 138.016 146.056C138.756 146.315 139.377 146.794 139.88 147.492C140.388 148.189 140.74 149.079 140.934 150.164L139.211 150.593L139.058 149.966C138.794 148.934 138.409 148.218 137.903 147.818C137.403 147.417 136.763 147.314 135.982 147.509C135.119 147.724 134.536 148.158 134.235 148.812C133.934 149.465 133.908 150.306 134.16 151.336C134.399 152.316 134.801 153.021 135.368 153.452C135.932 153.878 136.624 153.989 137.443 153.785C137.982 153.65 138.417 153.413 138.749 153.074C139.084 152.727 139.306 152.298 139.414 151.787L141.236 151.902C141.085 152.786 140.711 153.537 140.114 154.152C139.517 154.763 138.786 155.176 137.923 155.391ZM133.718 151.963L133.389 150.617L139.748 149.032L140.077 150.378L133.718 151.963ZM147.625 152.972C146.712 153.2 145.887 153.189 145.15 152.941C144.413 152.693 143.787 152.256 143.273 151.631C142.764 151.004 142.397 150.24 142.171 149.339C141.952 148.418 141.93 147.562 142.104 146.771C142.277 145.975 142.637 145.295 143.182 144.733C143.727 144.171 144.451 143.777 145.352 143.552C146.326 143.31 147.215 143.345 148.02 143.658C148.831 143.97 149.45 144.519 149.875 145.307L148.281 146.23C147.988 145.772 147.613 145.453 147.155 145.275C146.702 145.091 146.225 145.061 145.725 145.185C145.158 145.326 144.727 145.577 144.43 145.937C144.131 146.292 143.95 146.723 143.887 147.229C143.824 147.735 143.862 148.286 144.002 148.882C144.232 149.8 144.622 150.491 145.173 150.955C145.729 151.418 146.414 151.548 147.228 151.345C147.783 151.207 148.201 150.969 148.48 150.63C148.763 150.285 148.937 149.851 149.001 149.327L150.851 149.304C150.772 150.246 150.454 151.035 149.897 151.67C149.339 152.3 148.582 152.734 147.625 152.972ZM159.381 149.779L158.311 145.394C158.226 145.047 158.109 144.7 157.96 144.351C157.815 143.996 157.622 143.682 157.38 143.41C157.144 143.136 156.854 142.939 156.51 142.821C156.172 142.701 155.766 142.7 155.294 142.817C154.986 142.894 154.707 143.019 154.458 143.192C154.207 143.36 154.005 143.583 153.851 143.86C153.702 144.137 153.613 144.475 153.582 144.874C153.556 145.271 153.608 145.734 153.737 146.263L152.566 146.125C152.369 145.316 152.346 144.565 152.498 143.874C152.648 143.176 152.964 142.583 153.446 142.095C153.928 141.607 154.57 141.263 155.373 141.063C155.989 140.91 156.53 140.88 156.996 140.974C157.462 141.068 157.864 141.245 158.202 141.506C158.544 141.759 158.83 142.059 159.06 142.404C159.29 142.75 159.474 143.098 159.612 143.449C159.751 143.8 159.853 144.113 159.92 144.388L161.13 149.343L159.381 149.779ZM153.121 151.339L150.219 139.448L151.761 139.064L153.327 145.48L153.534 145.429L154.87 150.903L153.121 151.339ZM169.53 147.249L168.459 142.864C168.375 142.517 168.258 142.17 168.109 141.822C167.964 141.466 167.77 141.153 167.529 140.88C167.293 140.606 167.003 140.409 166.659 140.291C166.32 140.171 165.915 140.17 165.442 140.288C165.134 140.364 164.855 140.489 164.606 140.662C164.355 140.83 164.153 141.053 163.999 141.331C163.851 141.607 163.761 141.945 163.73 142.344C163.705 142.741 163.756 143.204 163.885 143.733L162.715 143.596C162.517 142.786 162.494 142.036 162.646 141.344C162.797 140.646 163.113 140.054 163.595 139.566C164.076 139.078 164.718 138.733 165.521 138.533C166.137 138.38 166.678 138.35 167.144 138.444C167.611 138.538 168.013 138.715 168.35 138.976C168.692 139.229 168.978 139.529 169.208 139.874C169.438 140.22 169.623 140.568 169.761 140.919C169.899 141.27 170.002 141.583 170.069 141.859L171.278 146.813L169.53 147.249ZM163.27 148.809L161.093 139.891L162.635 139.507L163.264 142.083L163.47 142.032L165.018 148.374L163.27 148.809ZM177.242 145.589C176.351 145.811 175.53 145.803 174.777 145.564C174.025 145.325 173.384 144.898 172.855 144.283C172.33 143.66 171.954 142.887 171.728 141.962C171.501 141.031 171.483 140.169 171.674 139.374C171.864 138.573 172.238 137.896 172.797 137.342C173.354 136.782 174.07 136.393 174.945 136.176C175.835 135.953 176.657 135.962 177.409 136.201C178.162 136.439 178.803 136.867 179.332 137.482C179.861 138.098 180.238 138.865 180.463 139.784C180.69 140.715 180.708 141.58 180.519 142.381C180.333 143.175 179.963 143.854 179.406 144.419C178.849 144.978 178.127 145.369 177.242 145.589ZM176.845 143.962C177.697 143.75 178.263 143.305 178.541 142.629C178.823 141.945 178.853 141.149 178.632 140.241C178.405 139.31 178.009 138.621 177.444 138.172C176.884 137.716 176.183 137.593 175.342 137.802C174.764 137.946 174.321 138.197 174.012 138.554C173.701 138.906 173.511 139.336 173.443 139.844C173.373 140.346 173.412 140.9 173.559 141.505C173.788 142.441 174.185 143.136 174.751 143.591C175.317 144.046 176.015 144.169 176.845 143.962ZM183.53 143.759L180.568 131.62L182.291 131.19L185.254 143.329L183.53 143.759ZM191.659 141.995C190.769 142.217 189.947 142.209 189.195 141.97C188.442 141.731 187.801 141.304 187.272 140.689C186.747 140.066 186.371 139.293 186.146 138.368C185.918 137.437 185.9 136.575 186.091 135.78C186.281 134.979 186.655 134.302 187.214 133.748C187.772 133.188 188.488 132.799 189.362 132.582C190.253 132.359 191.074 132.368 191.826 132.607C192.579 132.845 193.22 133.273 193.749 133.888C194.279 134.504 194.655 135.271 194.88 136.19C195.107 137.121 195.126 137.986 194.936 138.787C194.751 139.581 194.38 140.26 193.824 140.825C193.266 141.384 192.545 141.775 191.659 141.995ZM191.262 140.368C192.115 140.156 192.68 139.711 192.958 139.035C193.24 138.351 193.27 137.555 193.049 136.647C192.822 135.717 192.426 135.027 191.861 134.578C191.301 134.122 190.6 133.999 189.759 134.208C189.181 134.352 188.738 134.603 188.429 134.96C188.118 135.312 187.928 135.742 187.86 136.25C187.79 136.752 187.829 137.306 187.977 137.911C188.205 138.847 188.602 139.542 189.168 139.997C189.734 140.452 190.432 140.575 191.262 140.368ZM202.481 143.502C202.002 143.622 201.519 143.663 201.032 143.627C200.551 143.589 200.09 143.471 199.65 143.271C199.212 143.076 198.82 142.797 198.475 142.434L199.869 141.228C200.154 141.559 200.497 141.769 200.898 141.856C201.298 141.943 201.696 141.937 202.092 141.839C202.581 141.717 202.978 141.524 203.281 141.262C203.586 141.005 203.784 140.681 203.875 140.29C203.972 139.898 203.955 139.447 203.825 138.936L203.216 136.443L203.422 136.391L201.8 129.744L203.326 129.363L205.561 138.521C205.618 138.758 205.665 138.986 205.701 139.204C205.737 139.423 205.759 139.645 205.768 139.871C205.788 140.503 205.667 141.058 205.405 141.538C205.148 142.017 204.769 142.421 204.266 142.751C203.768 143.079 203.173 143.33 202.481 143.502ZM201.381 139.572C200.551 139.779 199.783 139.751 199.077 139.489C198.377 139.226 197.776 138.78 197.272 138.152C196.773 137.517 196.415 136.754 196.197 135.862C195.978 134.965 195.948 134.123 196.106 133.336C196.262 132.543 196.593 131.868 197.099 131.31C197.608 130.745 198.281 130.358 199.117 130.15C199.958 129.94 200.715 129.97 201.387 130.241C202.064 130.504 202.635 130.955 203.1 131.592C203.57 132.228 203.914 132.992 204.132 133.884C204.349 134.776 204.396 135.614 204.273 136.398C204.149 137.182 203.85 137.856 203.374 138.418C202.898 138.975 202.233 139.359 201.381 139.572ZM201.239 137.951C201.806 137.81 202.235 137.56 202.526 137.201C202.818 136.843 202.988 136.406 203.038 135.891C203.087 135.377 203.037 134.811 202.886 134.195C202.736 133.578 202.517 133.054 202.231 132.623C201.951 132.191 201.602 131.887 201.186 131.71C200.775 131.532 200.3 131.51 199.761 131.645C199.19 131.787 198.754 132.045 198.454 132.417C198.154 132.79 197.971 133.236 197.905 133.754C197.845 134.272 197.886 134.822 198.028 135.406C198.172 135.995 198.39 136.507 198.683 136.942C198.98 137.37 199.342 137.68 199.768 137.872C200.199 138.062 200.69 138.088 201.239 137.951ZM209.99 141.368L210.567 136.239L210.93 137.621L204.71 129.018L206.508 128.57L211.214 135.237L210.687 135.369L211.654 127.287L213.403 126.851L211.631 140.959L209.99 141.368Z" fill="black"/>
<g clip-path="url(#clip0_248_1065)">
<path d="M98.2389 168.748L98.7515 170.848M93.6261 149.848L94.1386 151.948M103.434 167.453L103.946 169.553M98.8209 148.553L99.3334 150.653M85.7992 162.938L87.8771 162.42M87.0805 168.188L89.1584 167.67M84.5178 157.688L86.5957 157.17M104.5 158.276L106.578 157.758M105.782 163.526L107.86 163.008M103.219 153.026L105.297 152.508M93.0441 170.043L93.5567 172.143M88.4313 151.143L88.9438 153.243M87.9048 153.502L100.372 150.394C101.52 150.108 102.68 150.816 102.963 151.976L106.038 164.576C106.321 165.736 105.62 166.908 104.473 167.194L92.0052 170.302C90.8576 170.588 89.6978 169.879 89.4147 168.72L86.3395 156.12C86.0564 154.96 86.7572 153.788 87.9048 153.502ZM92.0468 156.925L98.2806 155.371C98.8544 155.228 99.4343 155.582 99.5758 156.162L101.113 162.462C101.255 163.042 100.905 163.628 100.331 163.771L94.097 165.325C93.5232 165.468 92.9433 165.114 92.8017 164.534L91.2641 158.234C91.1226 157.654 91.473 157.068 92.0468 156.925Z" stroke="black" stroke-width="1.83333" stroke-linecap="round" stroke-linejoin="round"/>
</g>
<rect width="126.731" height="48.1247" rx="24.0623" transform="matrix(0.712875 -0.701291 0.693715 0.72025 70.7752 246.825)" fill="url(#paint2_linear_248_1065)"/>
<path d="M130.684 233.07L122.193 224.254L123.338 223.127L132.887 226.646L129.646 216.922L130.804 215.783L139.289 224.593L138.089 225.773L132.281 219.743L135.277 228.551L134.702 229.118L126.064 225.859L131.878 231.896L130.684 233.07ZM143.017 221.295C142.533 221.772 142.04 222.081 141.54 222.224C141.036 222.362 140.556 222.365 140.099 222.234C139.642 222.095 139.241 221.846 138.895 221.487C138.573 221.152 138.348 220.801 138.222 220.433C138.095 220.064 138.063 219.679 138.124 219.277C138.181 218.871 138.324 218.448 138.554 218.008C138.762 217.636 139.018 217.237 139.323 216.81C139.628 216.383 139.955 215.942 140.303 215.487C140.656 215.029 141.005 214.574 141.35 214.124L141.137 214.834C140.646 214.308 140.168 214.031 139.702 214.005C139.236 213.97 138.73 214.222 138.185 214.758C137.841 215.096 137.605 215.487 137.475 215.933C137.342 216.374 137.397 216.836 137.642 217.319L136.107 218.114C135.722 217.388 135.594 216.635 135.725 215.855C135.859 215.071 136.303 214.308 137.059 213.565C137.645 212.988 138.252 212.59 138.881 212.368C139.51 212.139 140.135 212.144 140.758 212.382C141.071 212.495 141.356 212.66 141.612 212.877C141.868 213.094 142.13 213.341 142.397 213.618L146.319 217.69L145.198 218.792L143.741 217.28L144.148 217.261C144.365 218.034 144.383 218.751 144.203 219.413C144.023 220.068 143.627 220.695 143.017 221.295ZM142.233 220.027C142.593 219.674 142.841 219.306 142.978 218.926C143.11 218.541 143.159 218.171 143.124 217.816C143.089 217.461 142.992 217.151 142.832 216.887C142.712 216.624 142.538 216.366 142.31 216.113C142.086 215.856 141.904 215.654 141.762 215.507L142.322 215.255C141.981 215.71 141.67 216.122 141.39 216.493C141.11 216.864 140.86 217.205 140.641 217.516C140.422 217.82 140.24 218.105 140.097 218.373C139.982 218.605 139.898 218.832 139.843 219.052C139.792 219.269 139.785 219.479 139.822 219.681C139.864 219.879 139.969 220.065 140.138 220.241C140.303 220.412 140.499 220.53 140.725 220.593C140.947 220.653 141.187 220.64 141.443 220.555C141.699 220.469 141.963 220.294 142.233 220.027ZM151.637 212.458C151.303 212.945 150.933 213.377 150.525 213.754C150.118 214.131 149.689 214.401 149.241 214.565C148.792 214.728 148.342 214.734 147.889 214.583C147.484 214.448 147.14 214.246 146.857 213.977C146.574 213.699 146.259 213.38 145.913 213.021L140.282 207.175L141.555 205.923L147.127 211.708C147.382 211.973 147.606 212.202 147.799 212.394C147.996 212.582 148.198 212.705 148.404 212.765C148.793 212.875 149.163 212.793 149.513 212.52C149.864 212.238 150.224 211.857 150.593 211.374L151.637 212.458ZM141.787 211.274L140.797 210.245L145.269 205.846L146.259 206.874L141.787 211.274ZM157.61 206.582L154.479 203.331C154.231 203.074 153.955 202.833 153.651 202.607C153.348 202.373 153.023 202.2 152.678 202.086C152.337 201.969 151.988 201.946 151.632 202.018C151.281 202.086 150.931 202.29 150.584 202.632C150.357 202.855 150.181 203.104 150.053 203.38C149.922 203.652 149.86 203.948 149.868 204.266C149.88 204.58 149.973 204.918 150.147 205.279C150.326 205.636 150.604 206.01 150.981 206.402L149.905 206.877C149.327 206.277 148.929 205.639 148.711 204.963C148.489 204.284 148.462 203.611 148.63 202.944C148.799 202.278 149.178 201.654 149.768 201.074C150.22 200.629 150.671 200.329 151.119 200.174C151.568 200.019 152.003 199.968 152.425 200.022C152.846 200.068 153.244 200.182 153.616 200.365C153.988 200.547 154.322 200.755 154.618 200.988C154.914 201.222 155.16 201.441 155.356 201.645L158.894 205.318L157.61 206.582ZM153.011 211.106L144.519 202.291L145.653 201.176L150.234 205.933L150.386 205.784L154.295 209.843L153.011 211.106ZM163.146 201.481C162.35 202.264 161.531 202.724 160.688 202.862C159.845 203 159.057 202.802 158.322 202.268L159.424 200.791C159.835 201.054 160.283 201.143 160.766 201.056C161.25 200.962 161.71 200.701 162.146 200.271C162.542 199.882 162.772 199.496 162.837 199.114C162.906 198.729 162.803 198.393 162.528 198.107C162.367 197.94 162.197 197.845 162.018 197.822C161.839 197.792 161.579 197.853 161.238 198.005C160.897 198.158 160.403 198.417 159.756 198.783C159.053 199.188 158.456 199.47 157.963 199.629C157.471 199.779 157.046 199.812 156.688 199.726C156.331 199.633 155.997 199.425 155.686 199.103C155.301 198.703 155.07 198.25 154.993 197.746C154.916 197.241 154.989 196.721 155.212 196.184C155.438 195.643 155.808 195.12 156.321 194.615C156.822 194.123 157.345 193.763 157.89 193.537C158.435 193.311 158.97 193.225 159.496 193.281C160.017 193.332 160.491 193.53 160.917 193.874L159.85 195.388C159.499 195.114 159.11 195.008 158.682 195.07C158.255 195.133 157.834 195.353 157.418 195.73C157.018 196.091 156.77 196.463 156.673 196.844C156.573 197.221 156.644 197.536 156.888 197.789C157.029 197.936 157.194 198.017 157.381 198.032C157.572 198.042 157.844 197.966 158.197 197.801C158.55 197.637 159.046 197.367 159.685 196.993C160.372 196.596 160.961 196.326 161.454 196.183C161.942 196.037 162.371 196.016 162.74 196.122C163.109 196.22 163.457 196.438 163.784 196.777C164.412 197.43 164.67 198.174 164.555 199.011C164.444 199.843 163.974 200.667 163.146 201.481Z" fill="black"/>
<g clip-path="url(#clip1_248_1065)">
<path d="M102.427 250.122L104.695 247.892C104.84 247.749 105.026 247.656 105.226 247.626C105.426 247.596 105.631 247.631 105.81 247.725L112.737 251.703C112.83 251.752 112.936 251.768 113.039 251.75C113.142 251.732 113.237 251.68 113.308 251.603C113.38 251.526 113.425 251.427 113.436 251.322C113.447 251.217 113.424 251.111 113.371 251.02L105.044 237.714C104.932 237.526 104.887 237.305 104.915 237.087C104.942 236.87 105.042 236.668 105.198 236.514L109.49 232.292" stroke="black" stroke-width="1.83333" stroke-linecap="round" stroke-linejoin="round"/>
</g>
<rect width="134.484" height="48.2901" rx="24.145" transform="matrix(-0.258753 -0.965944 0.968775 -0.247942 304.602 289.207)" fill="#FF8E90"/>
<path d="M318.879 226.443C319.106 227.291 319.091 228.055 318.833 228.736C318.57 229.417 318.124 229.996 317.495 230.473C316.866 230.95 316.107 231.302 315.218 231.53C314.328 231.757 313.491 231.817 312.705 231.708C311.917 231.594 311.244 231.304 310.686 230.838C310.12 230.369 309.725 229.716 309.501 228.878C309.278 228.046 309.292 227.276 309.542 226.569C309.785 225.857 310.217 225.247 310.837 224.737C311.452 224.229 312.207 223.86 313.102 223.631C313.991 223.404 314.837 223.363 315.638 223.508C316.433 223.65 317.117 223.969 317.69 224.466C318.261 224.957 318.658 225.616 318.879 226.443ZM323.702 229.665L310.856 232.953L310.447 231.426L316.845 229.788L316.793 229.591L323.24 227.941L323.702 229.665ZM317.387 227.079C317.24 226.532 316.979 226.116 316.604 225.832C316.227 225.542 315.779 225.37 315.26 225.316C314.734 225.258 314.177 225.304 313.59 225.454C313.008 225.603 312.505 225.828 312.082 226.13C311.656 226.426 311.353 226.793 311.171 227.231C310.989 227.67 310.975 228.173 311.127 228.743C311.271 229.279 311.522 229.689 311.879 229.972C312.235 230.249 312.671 230.412 313.189 230.461C313.705 230.504 314.271 230.447 314.885 230.29C315.5 230.133 316.022 229.911 316.45 229.626C316.878 229.341 317.179 228.986 317.353 228.562C317.526 228.137 317.538 227.643 317.387 227.079ZM315.404 214.455L311.031 215.574C310.686 215.662 310.339 215.783 309.993 215.936C309.64 216.085 309.329 216.281 309.06 216.526C308.79 216.764 308.598 217.056 308.485 217.401C308.371 217.74 308.377 218.145 308.503 218.616C308.585 218.923 308.715 219.199 308.892 219.446C309.064 219.695 309.291 219.894 309.572 220.045C309.851 220.189 310.191 220.275 310.591 220.301C310.989 220.322 311.452 220.265 311.979 220.13L311.862 221.301C311.055 221.507 310.303 221.539 309.608 221.395C308.907 221.253 308.308 220.944 307.811 220.469C307.314 219.993 306.959 219.356 306.745 218.557C306.58 217.944 306.541 217.404 306.628 216.938C306.714 216.471 306.884 216.068 307.139 215.728C307.387 215.383 307.682 215.094 308.025 214.861C308.367 214.627 308.712 214.439 309.061 214.297C309.411 214.155 309.722 214.049 309.997 213.979L314.938 212.714L315.404 214.455ZM317.073 220.686L305.215 223.721L304.804 222.186L311.202 220.548L311.147 220.343L316.607 218.946L317.073 220.686ZM317.996 208.365L312.851 207.848L314.228 207.47L305.72 213.779L305.24 211.989L311.836 207.213L311.977 207.739L303.868 206.866L303.402 205.125L317.559 206.731L317.996 208.365ZM311.281 198.111C311.57 199.189 311.566 200.129 311.271 200.93C310.975 201.731 310.414 202.319 309.587 202.694L308.845 201.007C309.277 200.779 309.574 200.434 309.738 199.971C309.894 199.504 309.893 198.975 309.735 198.384C309.591 197.847 309.369 197.457 309.069 197.212C308.767 196.962 308.425 196.886 308.04 196.984C307.815 197.042 307.649 197.143 307.541 197.287C307.426 197.428 307.351 197.684 307.315 198.056C307.28 198.427 307.262 198.985 307.262 199.728C307.268 200.539 307.219 201.198 307.114 201.704C307.002 202.207 306.821 202.592 306.57 202.861C306.313 203.126 305.967 203.314 305.533 203.425C304.995 203.563 304.488 203.54 304.011 203.358C303.534 203.176 303.117 202.856 302.759 202.398C302.4 201.934 302.128 201.354 301.941 200.659C301.76 199.981 301.705 199.348 301.777 198.763C301.848 198.177 302.038 197.669 302.345 197.24C302.647 196.811 303.053 196.497 303.562 196.296L304.354 197.971C303.942 198.141 303.658 198.427 303.502 198.83C303.345 199.232 303.329 199.708 303.452 200.255C303.57 200.781 303.77 201.18 304.054 201.452C304.333 201.726 304.643 201.819 304.983 201.732C305.181 201.681 305.332 201.578 305.437 201.423C305.54 201.262 305.608 200.987 305.639 200.599C305.67 200.211 305.68 199.647 305.669 198.907C305.662 198.113 305.718 197.467 305.836 196.969C305.95 196.472 306.143 196.089 306.417 195.82C306.684 195.547 307.046 195.352 307.501 195.236C308.38 195.011 309.155 195.155 309.826 195.667C310.495 196.174 310.98 196.989 311.281 198.111ZM299.197 195.244L297.526 195.672L297.066 193.956L298.738 193.528L299.197 195.244ZM309.548 192.595L300.655 194.871L300.195 193.155L309.089 190.879L309.548 192.595ZM307.659 184.557C307.902 185.466 307.906 186.289 307.67 187.028C307.434 187.767 307.007 188.397 306.39 188.918C305.771 189.433 305.012 189.808 304.113 190.044C303.195 190.273 302.338 190.305 301.543 190.14C300.743 189.977 300.056 189.626 299.484 189.088C298.912 188.55 298.505 187.833 298.265 186.935C298.005 185.966 298.026 185.078 298.325 184.27C298.624 183.457 299.164 182.833 299.945 182.399L300.896 183.98C300.442 184.278 300.13 184.656 299.96 185.115C299.782 185.57 299.76 186.046 299.894 186.544C300.045 187.108 300.303 187.536 300.669 187.829C301.029 188.122 301.463 188.298 301.972 188.355C302.48 188.412 303.031 188.368 303.625 188.221C304.54 187.981 305.226 187.584 305.681 187.028C306.135 186.468 306.254 185.782 306.037 184.972C305.889 184.419 305.643 184.005 305.3 183.731C304.949 183.452 304.511 183.283 303.985 183.225L303.93 181.379C304.875 181.447 305.671 181.755 306.316 182.304C306.956 182.853 307.404 183.605 307.659 184.557ZM305.258 175.628C305.547 176.707 305.544 177.646 305.248 178.447C304.952 179.248 304.391 179.836 303.565 180.212L302.822 178.524C303.254 178.297 303.552 177.951 303.715 177.488C303.872 177.021 303.871 176.492 303.713 175.901C303.569 175.365 303.347 174.974 303.047 174.729C302.745 174.479 302.402 174.403 302.018 174.501C301.793 174.559 301.626 174.66 301.518 174.805C301.403 174.945 301.328 175.201 301.293 175.573C301.257 175.945 301.24 176.502 301.239 177.245C301.245 178.056 301.196 178.715 301.091 179.222C300.979 179.724 300.798 180.11 300.548 180.378C300.29 180.643 299.944 180.831 299.511 180.942C298.973 181.08 298.465 181.058 297.988 180.876C297.511 180.694 297.094 180.373 296.737 179.915C296.378 179.451 296.105 178.872 295.919 178.177C295.737 177.498 295.682 176.866 295.754 176.28C295.826 175.694 296.015 175.186 296.323 174.757C296.624 174.329 297.03 174.014 297.539 173.814L298.331 175.489C297.919 175.658 297.635 175.945 297.479 176.347C297.323 176.75 297.306 177.225 297.43 177.772C297.547 178.298 297.748 178.697 298.032 178.969C298.31 179.243 298.62 179.336 298.96 179.249C299.158 179.199 299.309 179.096 299.414 178.94C299.518 178.779 299.585 178.505 299.616 178.116C299.647 177.728 299.657 177.164 299.647 176.424C299.639 175.631 299.695 174.985 299.814 174.486C299.927 173.989 300.121 173.606 300.395 173.337C300.662 173.064 301.023 172.869 301.479 172.753C302.357 172.528 303.132 172.672 303.803 173.185C304.473 173.692 304.958 174.506 305.258 175.628Z" fill="black"/>
<g clip-path="url(#clip2_248_1065)">
<path d="M321.509 257.118C321.356 256.546 320.763 256.203 320.186 256.35C319.608 256.498 319.264 257.082 319.417 257.654C319.57 258.225 320.163 258.569 320.74 258.421C321.318 258.273 321.662 257.69 321.509 257.118Z" stroke="black" stroke-width="1.83333" stroke-linecap="round" stroke-linejoin="round"/>
<path d="M326.765 246.7C324.076 245.131 319.062 248.649 315.567 254.545C312.098 260.456 311.464 266.516 314.161 268.072C316.85 269.641 321.864 266.122 325.359 260.227C328.828 254.316 329.462 248.256 326.765 246.7Z" stroke="black" stroke-width="1.83333" stroke-linecap="round" stroke-linejoin="round"/>
<path d="M323.307 252.564C317.304 249.099 311.169 248.434 309.612 251.09C308.041 253.738 311.632 258.716 317.619 262.208C323.622 265.673 329.757 266.337 331.314 263.682C332.885 261.033 329.294 256.055 323.307 252.564Z" stroke="black" stroke-width="1.83333" stroke-linecap="round" stroke-linejoin="round"/>
</g>
<rect width="122.012" height="47.8893" rx="23.9447" transform="matrix(0.485023 -0.874502 0.872029 0.489454 183.797 229.762)" fill="url(#paint3_linear_248_1065)"/>
<path d="M238.731 193.146C238.137 194.216 237.399 194.997 236.517 195.49C235.63 195.98 234.657 196.191 233.599 196.124C232.544 196.051 231.466 195.706 230.364 195.087C229.262 194.469 228.403 193.727 227.788 192.862C227.176 191.992 226.846 191.05 226.799 190.036C226.748 189.019 227.019 187.975 227.612 186.905C228.297 185.671 229.174 184.825 230.245 184.367C231.318 183.904 232.469 183.809 233.697 184.082L233.246 185.895C232.384 185.685 231.593 185.728 230.871 186.024C230.152 186.316 229.557 186.886 229.087 187.733C228.667 188.491 228.487 189.219 228.547 189.915C228.608 190.612 228.873 191.262 229.343 191.863C229.816 192.46 230.46 192.987 231.275 193.445C232.088 193.907 232.87 194.184 233.623 194.275C234.379 194.362 235.067 194.248 235.689 193.934C236.313 193.614 236.835 193.076 237.256 192.318C237.726 191.47 237.895 190.662 237.764 189.893C237.631 189.117 237.252 188.417 236.626 187.792L237.922 186.454C238.799 187.362 239.323 188.397 239.495 189.559C239.67 190.716 239.415 191.912 238.731 193.146ZM244.209 183.267C243.764 184.07 243.198 184.665 242.51 185.052C241.822 185.44 241.073 185.617 240.261 185.584C239.448 185.543 238.626 185.29 237.796 184.824C236.961 184.355 236.318 183.78 235.867 183.098C235.411 182.413 235.171 181.677 235.147 180.89C235.118 180.101 235.322 179.312 235.759 178.524C236.205 177.722 236.771 177.127 237.459 176.739C238.147 176.352 238.896 176.175 239.707 176.208C240.519 176.241 241.337 176.489 242.162 176.952C242.997 177.421 243.643 177.998 244.099 178.682C244.553 179.36 244.796 180.094 244.83 180.886C244.859 181.676 244.652 182.469 244.209 183.267ZM242.749 182.448C243.175 181.68 243.236 180.963 242.931 180.298C242.623 179.625 242.062 179.06 241.247 178.602C240.412 178.133 239.637 177.952 238.924 178.059C238.208 178.157 237.64 178.586 237.22 179.344C236.931 179.864 236.812 180.36 236.862 180.83C236.908 181.297 237.092 181.729 237.417 182.125C237.736 182.519 238.168 182.869 238.711 183.174C239.551 183.645 240.331 183.829 241.049 183.726C241.767 183.622 242.334 183.196 242.749 182.448ZM249.069 174.505C248.654 175.254 248.11 175.796 247.437 176.133C246.767 176.465 246.031 176.601 245.228 176.541C244.424 176.473 243.621 176.214 242.821 175.765C242.015 175.312 241.379 174.76 240.911 174.108C240.439 173.453 240.171 172.75 240.107 172C240.042 171.242 240.218 170.486 240.636 169.733C241.056 168.975 241.595 168.442 242.251 168.134C242.905 167.819 243.624 167.709 244.407 167.805C245.193 167.895 245.986 168.164 246.787 168.614C247.587 169.063 248.232 169.6 248.721 170.226C249.21 170.851 249.498 171.529 249.585 172.261C249.667 172.989 249.495 173.737 249.069 174.505ZM247.788 173.503C248.071 172.993 248.181 172.509 248.117 172.051C248.054 171.593 247.851 171.17 247.508 170.783C247.166 170.396 246.718 170.047 246.164 169.736C245.611 169.426 245.079 169.228 244.569 169.143C244.061 169.053 243.601 169.1 243.188 169.284C242.778 169.463 242.438 169.796 242.168 170.281C241.883 170.797 241.774 171.291 241.841 171.764C241.909 172.238 242.11 172.676 242.445 173.078C242.782 173.475 243.212 173.82 243.736 174.114C244.265 174.411 244.788 174.601 245.306 174.684C245.821 174.759 246.295 174.706 246.725 174.525C247.159 174.34 247.513 173.999 247.788 173.503ZM250.174 171.987L244.415 168.754L244.316 168.933L239.402 166.174L240.267 164.613L250.941 170.604L250.174 171.987ZM254.292 165.089C253.849 165.887 253.287 166.491 252.606 166.901C251.923 167.304 251.176 167.499 250.367 167.487C249.555 167.466 248.736 167.225 247.911 166.761C247.037 166.27 246.369 165.681 245.908 164.994C245.45 164.301 245.209 163.561 245.185 162.775C245.161 161.988 245.366 161.203 245.8 160.42C246.254 159.603 246.83 159.013 247.53 158.652C248.224 158.288 248.998 158.16 249.851 158.269C250.708 158.372 251.598 158.723 252.524 159.321L251.662 160.874L251.099 160.558C250.165 160.046 249.379 159.839 248.742 159.937C248.107 160.029 247.595 160.427 247.205 161.131C246.773 161.909 246.694 162.631 246.966 163.297C247.238 163.963 247.836 164.555 248.76 165.074C249.639 165.567 250.43 165.754 251.131 165.635C251.828 165.512 252.381 165.082 252.79 164.344C253.06 163.858 253.183 163.378 253.161 162.904C253.136 162.423 252.974 161.968 252.674 161.539L254.001 160.286C254.544 161 254.838 161.786 254.881 162.642C254.92 163.495 254.723 164.311 254.292 165.089ZM248.917 165.825L247.709 165.147L250.887 159.416L252.095 160.094L248.917 165.825Z" fill="black"/>
<g clip-path="url(#clip3_248_1065)">
<path d="M224.592 217.316L222.337 209.38L214.439 211.618M210.678 218.4L212.933 226.336L220.83 224.098" stroke="black" stroke-width="1.83333" stroke-linecap="round" stroke-linejoin="round"/>
</g>
<rect x="68.6511" y="286.969" width="133.082" height="48.3716" rx="24.1858" fill="url(#paint4_linear_248_1065)"/>
<path d="M122.772 317.946V305.706H130.592V307.381H124.548V310.815H129.572V312.489H124.548V316.272H130.592V317.946H122.772ZM136.28 318.201C135.424 318.201 134.684 317.989 134.061 317.564C133.443 317.139 132.965 316.561 132.625 315.83C132.29 315.093 132.123 314.266 132.123 313.348C132.123 312.424 132.293 311.6 132.633 310.874C132.973 310.143 133.455 309.568 134.078 309.149C134.707 308.724 135.452 308.511 136.314 308.511C137.181 308.511 137.909 308.724 138.498 309.149C139.093 309.568 139.541 310.143 139.841 310.874C140.147 311.605 140.3 312.43 140.3 313.348C140.3 314.266 140.147 315.09 139.841 315.821C139.535 316.552 139.085 317.133 138.49 317.564C137.895 317.989 137.158 318.201 136.28 318.201ZM136.526 316.595C137.11 316.595 137.586 316.456 137.954 316.178C138.322 315.901 138.592 315.518 138.762 315.031C138.932 314.543 139.017 313.982 139.017 313.348C139.017 312.713 138.929 312.152 138.753 311.665C138.583 311.177 138.317 310.798 137.954 310.526C137.597 310.254 137.141 310.118 136.586 310.118C135.996 310.118 135.512 310.262 135.132 310.551C134.752 310.84 134.469 311.228 134.282 311.716C134.101 312.203 134.01 312.747 134.01 313.348C134.01 313.954 134.101 314.504 134.282 314.997C134.469 315.484 134.747 315.872 135.115 316.161C135.489 316.45 135.959 316.595 136.526 316.595ZM139.017 317.946V311.342H138.813V305.706H140.598V317.946H139.017ZM143.146 307.262V305.536H144.922V307.262H143.146ZM143.146 317.946V308.766H144.922V317.946H143.146ZM152.728 317.946C152.15 318.06 151.583 318.108 151.028 318.091C150.472 318.074 149.977 317.966 149.54 317.768C149.104 317.569 148.775 317.258 148.554 316.833C148.356 316.453 148.248 316.068 148.231 315.677C148.22 315.28 148.214 314.832 148.214 314.334V306.216H149.999V314.249C149.999 314.617 150.002 314.937 150.008 315.209C150.019 315.481 150.079 315.711 150.186 315.898C150.39 316.249 150.713 316.45 151.155 316.501C151.603 316.547 152.127 316.527 152.728 316.442V317.946ZM146.455 310.194V308.766H152.728V310.194H146.455ZM154.833 307.262V305.536H156.61V307.262H154.833ZM154.833 317.946V308.766H156.61V317.946H154.833ZM165.605 317.946V313.433C165.605 313.076 165.574 312.71 165.512 312.336C165.455 311.957 165.342 311.605 165.172 311.282C165.007 310.959 164.772 310.699 164.466 310.5C164.166 310.302 163.772 310.203 163.285 310.203C162.967 310.203 162.667 310.257 162.384 310.364C162.1 310.466 161.851 310.633 161.636 310.866C161.426 311.098 161.259 311.404 161.134 311.784C161.015 312.163 160.956 312.625 160.956 313.169L159.851 312.753C159.851 311.92 160.007 311.186 160.318 310.551C160.63 309.911 161.078 309.412 161.661 309.055C162.245 308.698 162.95 308.52 163.778 308.52C164.412 308.52 164.945 308.622 165.376 308.826C165.806 309.03 166.155 309.299 166.421 309.633C166.693 309.962 166.9 310.322 167.042 310.713C167.183 311.104 167.28 311.486 167.331 311.86C167.382 312.234 167.407 312.563 167.407 312.846V317.946H165.605ZM159.154 317.946V308.766H160.743V311.418H160.956V317.946H159.154ZM173.404 322.281C172.911 322.281 172.432 322.205 171.967 322.052C171.508 321.899 171.089 321.672 170.709 321.372C170.33 321.077 170.015 320.712 169.766 320.275L171.406 319.442C171.605 319.833 171.888 320.119 172.256 320.301C172.625 320.482 173.013 320.573 173.421 320.573C173.925 320.573 174.356 320.482 174.713 320.301C175.07 320.125 175.339 319.859 175.52 319.502C175.707 319.145 175.798 318.703 175.792 318.176V315.609H176.005V308.766H177.577V318.193C177.577 318.436 177.569 318.669 177.552 318.89C177.535 319.111 177.504 319.332 177.458 319.553C177.328 320.17 177.079 320.68 176.71 321.083C176.348 321.485 175.883 321.785 175.316 321.984C174.755 322.182 174.118 322.281 173.404 322.281ZM173.268 318.201C172.412 318.201 171.673 317.989 171.049 317.564C170.432 317.139 169.953 316.561 169.613 315.83C169.278 315.093 169.111 314.266 169.111 313.348C169.111 312.424 169.281 311.6 169.621 310.874C169.961 310.143 170.443 309.568 171.066 309.149C171.695 308.724 172.44 308.511 173.302 308.511C174.169 308.511 174.897 308.724 175.486 309.149C176.081 309.568 176.529 310.143 176.829 310.874C177.135 311.605 177.288 312.43 177.288 313.348C177.288 314.266 177.135 315.09 176.829 315.821C176.523 316.552 176.073 317.133 175.478 317.564C174.883 317.989 174.146 318.201 173.268 318.201ZM173.514 316.595C174.098 316.595 174.574 316.456 174.942 316.178C175.311 315.901 175.58 315.518 175.75 315.031C175.92 314.543 176.005 313.982 176.005 313.348C176.005 312.713 175.917 312.152 175.741 311.665C175.571 311.177 175.305 310.798 174.942 310.526C174.585 310.254 174.129 310.118 173.574 310.118C172.984 310.118 172.5 310.262 172.12 310.551C171.741 310.84 171.457 311.228 171.27 311.716C171.089 312.203 170.998 312.747 170.998 313.348C170.998 313.954 171.089 314.504 171.27 314.997C171.457 315.484 171.735 315.872 172.103 316.161C172.477 316.45 172.948 316.595 173.514 316.595Z" fill="black"/>
<g clip-path="url(#clip4_248_1065)">
<path d="M98.0224 302.39H94.6256C93.7247 302.39 92.8607 302.747 92.2237 303.383C91.5866 304.019 91.2288 304.882 91.2288 305.782C91.2288 306.681 91.5866 307.544 92.2237 308.18C92.8607 308.816 93.7247 309.174 94.6256 309.174M98.0224 302.39V309.174M98.0224 302.39H101.419C101.865 302.39 102.307 302.478 102.719 302.648C103.131 302.819 103.506 303.068 103.821 303.383C104.137 303.698 104.387 304.072 104.557 304.484C104.728 304.895 104.816 305.336 104.816 305.782C104.816 306.227 104.728 306.668 104.557 307.08C104.387 307.491 104.137 307.865 103.821 308.18C103.506 308.495 103.131 308.745 102.719 308.916C102.307 309.086 101.865 309.174 101.419 309.174M98.0224 309.174H94.6256M98.0224 309.174H101.419M98.0224 309.174V315.958M94.6256 309.174C93.7247 309.174 92.8607 309.531 92.2237 310.167C91.5866 310.803 91.2288 311.666 91.2288 312.566C91.2288 313.465 91.5866 314.328 92.2237 314.964C92.8607 315.6 93.7247 315.958 94.6256 315.958M101.419 309.174C100.973 309.174 100.531 309.262 100.119 309.432C99.7072 309.602 99.3327 309.852 99.0173 310.167C98.7019 310.482 98.4517 310.856 98.281 311.268C98.1103 311.679 98.0224 312.12 98.0224 312.566C98.0224 313.011 98.1103 313.452 98.281 313.864C98.4517 314.275 98.7019 314.649 99.0173 314.964C99.3327 315.279 99.7072 315.529 100.119 315.699C100.531 315.87 100.973 315.958 101.419 315.958C101.865 315.958 102.307 315.87 102.719 315.699C103.131 315.529 103.506 315.279 103.821 314.964C104.137 314.649 104.387 314.275 104.557 313.864C104.728 313.452 104.816 313.011 104.816 312.566C104.816 312.12 104.728 311.679 104.557 311.268C104.387 310.856 104.137 310.482 103.821 310.167C103.506 309.852 103.131 309.602 102.719 309.432C102.307 309.262 101.865 309.174 101.419 309.174ZM94.6256 315.958C93.7247 315.958 92.8607 316.315 92.2237 316.951C91.5866 317.587 91.2288 318.45 91.2288 319.35C91.2288 320.249 91.5866 321.112 92.2237 321.748C92.8607 322.384 93.7247 322.742 94.6256 322.742C95.5265 322.742 96.3905 322.384 97.0275 321.748C97.6645 321.112 98.0224 320.249 98.0224 319.35V315.958M94.6256 315.958H98.0224" stroke="black" stroke-width="1.83333" stroke-linecap="round" stroke-linejoin="round"/>
</g>
<rect width="134.639" height="48.2336" rx="24.1168" transform="matrix(0.929693 0.368335 -0.359482 0.933152 248.827 18.0735)" fill="url(#paint5_linear_248_1065)"/>
<path d="M289.216 66.8419L293.616 55.4201L295.268 56.0745L291.47 65.9337L296.622 67.975L296.02 69.5376L289.216 66.8419ZM301.055 71.8068C300.207 71.4707 299.533 70.9903 299.033 70.3655C298.54 69.7375 298.243 69.0194 298.141 68.2112C298.047 67.3998 298.17 66.5526 298.51 65.6695C298.871 64.7335 299.357 63.9907 299.97 63.4411C300.588 62.8935 301.282 62.5562 302.054 62.4291C302.825 62.3021 303.627 62.4034 304.46 62.7332C305.329 63.0776 305.991 63.5744 306.445 64.2237C306.901 64.8677 307.136 65.622 307.149 66.4866C307.167 67.3532 306.947 68.2869 306.489 69.2877L304.837 68.6334L305.07 68.0306C305.442 67.0323 305.535 66.2221 305.35 65.6001C305.17 64.9802 304.706 64.522 303.958 64.2256C303.13 63.8979 302.408 63.9134 301.79 64.272C301.172 64.6306 300.673 65.3043 300.292 66.2932C299.929 67.2344 299.856 68.0466 300.073 68.7297C300.291 69.4075 300.793 69.9019 301.578 70.2129C302.095 70.4174 302.585 70.4775 303.048 70.393C303.519 70.3053 303.945 70.0838 304.324 69.7284L305.746 70.8858C305.118 71.521 304.386 71.9166 303.549 72.0724C302.714 72.223 301.882 72.1345 301.055 71.8068ZM299.574 66.5482L300.072 65.2554L306.165 67.6692L305.667 68.9621L299.574 66.5482ZM308.956 74.9371C308.324 74.6866 307.84 74.3605 307.502 73.9588C307.167 73.5518 306.964 73.1114 306.891 72.6377C306.826 72.1609 306.883 71.6897 307.062 71.2244C307.229 70.7908 307.452 70.4403 307.731 70.173C308.01 69.9057 308.344 69.7179 308.732 69.6094C309.122 69.4958 309.563 69.4541 310.055 69.4846C310.477 69.5238 310.944 69.5961 311.456 69.7015C311.968 69.8068 312.502 69.9268 313.057 70.0615C313.618 70.1983 314.173 70.333 314.723 70.4656L313.994 70.5608C314.263 69.8934 314.313 69.34 314.142 68.9005C313.978 68.4579 313.541 68.0957 312.83 67.8139C312.382 67.6365 311.93 67.5794 311.475 67.6428C311.021 67.7008 310.628 67.9412 310.295 68.3639L308.938 67.2775C309.432 66.626 310.057 66.2003 310.814 66.0005C311.577 65.8027 312.45 65.899 313.435 66.2893C314.199 66.592 314.812 66.9872 315.274 67.4749C315.743 67.9594 316.001 68.5368 316.046 69.2069C316.075 69.5414 316.045 69.871 315.957 70.1955C315.868 70.52 315.754 70.862 315.616 71.2216L313.584 76.4962L312.122 75.917L312.877 73.9579L313.063 74.3244C312.458 74.8402 311.819 75.1509 311.147 75.2564C310.482 75.3587 309.752 75.2522 308.956 74.9371ZM309.771 73.6966C310.24 73.8823 310.675 73.9601 311.075 73.9297C311.477 73.8941 311.831 73.7874 312.136 73.6097C312.442 73.432 312.68 73.2156 312.851 72.9603C313.039 72.742 313.199 72.4763 313.331 72.1632C313.469 71.8522 313.575 71.6015 313.648 71.4111L314.109 71.8223C313.557 71.695 313.056 71.5786 312.604 71.4729C312.153 71.3673 311.742 71.2774 311.369 71.2031C311.005 71.1256 310.672 71.0759 310.37 71.054C310.113 71.0436 309.874 71.0584 309.652 71.0985C309.435 71.1407 309.244 71.2202 309.077 71.3371C308.916 71.4561 308.791 71.6293 308.704 71.8566C308.618 72.0787 308.594 72.3069 308.632 72.5411C308.671 72.77 308.782 72.9848 308.966 73.1856C309.15 73.3864 309.418 73.5567 309.771 73.6966ZM315.636 77.3092L318.936 68.7429L320.406 69.3252L319.605 71.4034L319.504 71.0523C319.715 70.8191 319.949 70.6221 320.205 70.4616C320.463 70.2957 320.731 70.1825 321.01 70.1222C321.287 70.0491 321.573 70.0224 321.869 70.0422C322.173 70.0588 322.467 70.1144 322.752 70.2092C323.04 70.2986 323.303 70.4183 323.543 70.5682L322.944 72.1228C322.694 71.9382 322.391 71.7939 322.036 71.6899C321.687 71.5881 321.334 71.5733 320.978 71.6457C320.643 71.7137 320.348 71.8407 320.094 72.0266C319.845 72.2146 319.628 72.4484 319.441 72.728C319.257 73.0022 319.099 73.3086 318.969 73.647L317.303 77.9698L315.636 77.3092ZM327.738 82.1039L329.361 77.8921C329.489 77.559 329.591 77.2065 329.668 76.8345C329.752 76.4593 329.773 76.0898 329.731 75.7257C329.694 75.3638 329.569 75.0339 329.356 74.7361C329.148 74.4404 328.817 74.2028 328.364 74.0233C328.069 73.9065 327.771 73.8461 327.469 73.8422C327.169 73.833 326.877 73.8972 326.593 74.0346C326.314 74.1742 326.049 74.3982 325.797 74.7066C325.55 75.017 325.328 75.4261 325.133 75.9337L324.255 75.138C324.555 74.3607 324.963 73.7333 325.481 73.2559C326.001 72.7731 326.597 72.4727 327.267 72.3546C327.938 72.2364 328.659 72.3297 329.428 72.6344C330.018 72.8682 330.476 73.1596 330.803 73.5086C331.13 73.8576 331.358 74.2371 331.485 74.6472C331.62 75.0541 331.683 75.466 331.674 75.8831C331.665 76.3001 331.617 76.6925 331.53 77.0603C331.443 77.4281 331.349 77.7442 331.247 78.0086L329.413 82.7677L327.738 82.1039ZM321.74 79.7276L325.04 71.1613L326.518 71.7467L325.565 74.2215L325.762 74.2997L323.415 80.3914L321.74 79.7276Z" fill="black"/>
<g clip-path="url(#clip5_248_1065)">
<path d="M269.806 58.2535C269.004 60.3349 266.672 61.3555 264.596 60.5331C262.52 59.7106 261.487 57.3565 262.289 55.2751C263.091 53.1937 265.423 52.1731 267.499 52.9955C269.575 53.818 270.608 56.172 269.806 58.2535ZM269.806 58.2535L275.614 43.1783L280.74 49.5532" stroke="black" stroke-width="1.83333" stroke-linecap="round" stroke-linejoin="round"/>
</g>
<rect width="134.615" height="48.2423" rx="24.1211" transform="matrix(0.859245 0.511564 -0.503618 0.863926 212.576 46.541)" fill="url(#paint6_linear_248_1065)"/>
<path d="M249.817 103.354L255.982 92.7795L257.362 93.6014L256.538 103.824L264.965 98.1279L266.36 98.9585L260.2 109.526L258.754 108.665L262.97 101.431L255.353 106.65L254.659 106.237L255.477 96.97L251.256 104.211L249.817 103.354ZM265.09 112.734C264.545 112.409 264.139 112.049 263.871 111.652C263.604 111.256 263.436 110.846 263.368 110.423C263.308 109.998 263.315 109.58 263.39 109.17C263.465 108.759 263.575 108.38 263.72 108.03C263.864 107.681 264.008 107.384 264.151 107.139L266.719 102.733L268.267 103.655L265.994 107.555C265.815 107.863 265.653 108.196 265.511 108.553C265.376 108.908 265.298 109.267 265.276 109.63C265.26 109.996 265.331 110.341 265.489 110.666C265.652 110.994 265.943 111.283 266.361 111.532C266.634 111.694 266.918 111.804 267.213 111.861C267.51 111.913 267.808 111.892 268.105 111.799C268.407 111.708 268.705 111.529 268.998 111.262C269.297 110.998 269.583 110.631 269.857 110.161L270.596 111.086C270.177 111.805 269.672 112.362 269.082 112.756C268.494 113.145 267.86 113.344 267.179 113.354C266.497 113.364 265.801 113.157 265.09 112.734ZM267.822 114.073L269.157 111.782L268.975 111.673L272.262 106.034L273.803 106.951L269.18 114.882L267.822 114.073ZM274.121 118.11C273.162 117.539 272.504 116.861 272.149 116.076C271.793 115.29 271.773 114.47 272.088 113.616L273.792 114.304C273.649 114.773 273.684 115.232 273.894 115.681C274.113 116.127 274.485 116.507 275.011 116.82C275.488 117.104 275.918 117.228 276.3 117.192C276.686 117.158 276.98 116.97 277.179 116.627C277.296 116.427 277.342 116.236 277.316 116.056C277.298 115.873 277.17 115.636 276.934 115.344C276.698 115.051 276.319 114.638 275.798 114.103C275.224 113.524 274.795 113.015 274.513 112.577C274.239 112.137 274.095 111.731 274.081 111.36C274.075 110.988 274.185 110.608 274.411 110.221C274.69 109.741 275.061 109.398 275.523 109.191C275.984 108.985 276.501 108.92 277.073 108.996C277.649 109.076 278.247 109.3 278.865 109.668C279.469 110.028 279.951 110.443 280.312 110.915C280.673 111.388 280.897 111.887 280.984 112.413C281.073 112.935 281.01 113.448 280.795 113.953L279.065 113.309C279.234 112.895 279.232 112.488 279.058 112.088C278.885 111.688 278.563 111.335 278.092 111.028C277.641 110.733 277.22 110.588 276.83 110.593C276.443 110.594 276.161 110.746 275.984 111.049C275.882 111.225 275.848 111.406 275.884 111.593C275.925 111.782 276.07 112.027 276.321 112.328C276.572 112.629 276.961 113.042 277.488 113.567C278.05 114.132 278.465 114.636 278.732 115.079C279.001 115.516 279.135 115.929 279.132 116.316C279.137 116.701 279.021 117.097 278.784 117.504C278.327 118.287 277.684 118.732 276.855 118.838C276.03 118.947 275.119 118.705 274.121 118.11ZM284.587 111.621L285.456 110.13L286.983 111.039L286.114 112.529L284.587 111.621ZM279.206 120.851L283.829 112.92L285.356 113.829L280.733 121.76L279.206 120.851ZM286.172 125.295C285.363 124.814 284.782 124.224 284.429 123.525C284.075 122.827 283.932 122.072 283.998 121.261C284.069 120.452 284.336 119.645 284.799 118.839C285.281 118.025 285.857 117.395 286.529 116.951C287.204 116.502 287.931 116.269 288.709 116.251C289.487 116.232 290.275 116.461 291.074 116.937C291.935 117.45 292.545 118.103 292.903 118.896C293.265 119.692 293.325 120.523 293.083 121.387L291.307 120.924C291.416 120.388 291.369 119.895 291.166 119.445C290.971 118.992 290.652 118.634 290.208 118.37C289.707 118.072 289.226 117.947 288.764 117.995C288.306 118.039 287.879 118.22 287.484 118.538C287.088 118.857 286.734 119.279 286.421 119.805C285.949 120.625 285.749 121.396 285.82 122.118C285.896 122.842 286.294 123.419 287.015 123.848C287.507 124.141 287.969 124.265 288.402 124.219C288.843 124.172 289.268 123.983 289.677 123.653L291.011 124.942C290.303 125.562 289.53 125.903 288.693 125.965C287.859 126.023 287.019 125.799 286.172 125.295Z" fill="black"/>
<g clip-path="url(#clip6_248_1065)">
<path d="M226.88 89.5446C225.757 91.4719 223.291 92.1086 221.372 90.9665C219.454 89.8244 218.81 87.3361 219.933 85.4088C221.057 83.4814 223.523 82.8448 225.441 83.9868C227.359 85.1289 228.004 87.6172 226.88 89.5446ZM226.88 89.5446L235.018 75.5853L239.062 82.6939" stroke="black" stroke-width="1.83333" stroke-linecap="round" stroke-linejoin="round"/>
</g>
<rect width="134.569" height="48.2601" rx="24.13" transform="matrix(0.707936 -0.706276 0.714661 0.699471 101.244 95.7917)" fill="url(#paint7_linear_248_1065)"/>
<path d="M159.815 78.4512L151.067 69.8897L156.2 64.7689L157.47 66.0115L153.595 69.8776L156.061 72.2915L159.214 69.1458L160.49 70.3943L157.337 73.5401L161.073 77.1965L159.815 78.4512ZM158.517 64.655L157.284 63.4481L158.541 62.1934L159.774 63.4003L158.517 64.655ZM166.152 72.1285L159.592 65.7074L160.85 64.4527L167.41 70.8738L166.152 72.1285ZM173.778 64.5205L170.553 61.3634C170.298 61.1137 170.014 60.8801 169.703 60.6625C169.391 60.4369 169.06 60.2712 168.709 60.1654C168.362 60.0555 168.009 60.0393 167.651 60.1167C167.296 60.1901 166.947 60.3988 166.602 60.743C166.377 60.9672 166.203 61.2169 166.079 61.4924C165.952 61.7638 165.894 62.0568 165.908 62.3714C165.926 62.682 166.026 63.0141 166.209 63.3677C166.396 63.7174 166.684 64.0824 167.073 64.4629L165.993 64.952C165.398 64.3694 164.984 63.746 164.751 63.082C164.514 62.414 164.474 61.749 164.632 61.087C164.79 60.4251 165.162 59.802 165.748 59.2176C166.197 58.7694 166.647 58.4645 167.098 58.303C167.549 58.1416 167.988 58.0837 168.415 58.1295C168.843 58.1672 169.246 58.2728 169.626 58.4463C170.006 58.6197 170.347 58.8192 170.65 59.0448C170.954 59.2704 171.207 59.4823 171.409 59.6805L175.054 63.2478L173.778 64.5205ZM169.211 69.077L162.651 62.6559L163.776 61.5332L165.671 63.3882L165.822 63.2382L170.487 67.8043L169.211 69.077ZM178.639 60.0314C178.158 60.5117 177.665 60.8267 177.162 60.9765C176.655 61.1223 176.169 61.1346 175.705 61.0133C175.241 60.8841 174.831 60.6451 174.474 60.2963C174.142 59.9713 173.909 59.6279 173.774 59.2661C173.639 58.9042 173.599 58.5241 173.654 58.1255C173.704 57.723 173.841 57.3021 174.065 56.8629C174.269 56.4915 174.521 56.092 174.821 55.6644C175.121 55.2367 175.444 54.7951 175.788 54.3394C176.137 53.8796 176.481 53.4239 176.822 52.9722L176.619 53.6782C176.113 53.1668 175.624 52.9023 175.152 52.8846C174.681 52.859 174.174 53.1163 173.632 53.6566C173.292 53.9968 173.06 54.3883 172.937 54.831C172.81 55.2697 172.875 55.7254 173.131 56.1982L171.593 57.0121C171.19 56.3011 171.048 55.5589 171.165 54.7857C171.286 54.0084 171.722 53.2455 172.472 52.4971C173.054 51.9168 173.661 51.5116 174.292 51.2816C174.924 51.0435 175.557 51.0365 176.191 51.2605C176.51 51.3665 176.801 51.5245 177.064 51.7343C177.327 51.9442 177.596 52.1838 177.871 52.4534L181.911 56.4071L180.798 57.5178L179.297 56.0492L179.708 56.0234C179.942 56.783 179.973 57.4918 179.803 58.1498C179.633 58.7999 179.245 59.4271 178.639 60.0314ZM177.823 58.7926C178.18 58.4364 178.424 58.0688 178.555 57.6898C178.682 57.3068 178.725 56.9402 178.683 56.5899C178.641 56.2396 178.537 55.9354 178.37 55.6773C178.244 55.419 178.064 55.1669 177.829 54.9211C177.598 54.6712 177.409 54.475 177.263 54.3323L177.824 54.0727C177.488 54.5284 177.182 54.9421 176.905 55.3138C176.629 55.6856 176.383 56.0273 176.167 56.339C175.95 56.6428 175.772 56.9284 175.633 57.1959C175.521 57.4275 175.439 57.6529 175.388 57.8722C175.341 58.0875 175.338 58.2947 175.379 58.4936C175.424 58.6886 175.534 58.8713 175.708 59.0417C175.878 59.2082 176.078 59.3208 176.308 59.3794C176.534 59.4341 176.776 59.417 177.033 59.3281C177.291 59.2393 177.554 59.0608 177.823 58.7926ZM188.035 50.2977L184.809 47.1406C184.554 46.8909 184.271 46.6573 183.959 46.4397C183.648 46.2142 183.316 46.0485 182.965 45.9426C182.618 45.8327 182.265 45.8165 181.907 45.8939C181.553 45.9673 181.203 46.1761 180.858 46.5203C180.633 46.7444 180.459 46.9942 180.335 47.2696C180.208 47.541 180.151 47.8341 180.164 48.1487C180.182 48.4592 180.282 48.7914 180.465 49.145C180.652 49.4946 180.94 49.8596 181.329 50.2402L180.249 50.7293C179.654 50.1466 179.24 49.5232 179.007 48.8592C178.77 48.1912 178.73 47.5262 178.888 46.8643C179.046 46.2023 179.418 45.5792 180.004 44.9949C180.453 44.5466 180.903 44.2417 181.354 44.0803C181.805 43.9188 182.244 43.8609 182.671 43.9067C183.099 43.9445 183.502 44.0501 183.882 44.2235C184.262 44.3969 184.603 44.5965 184.907 44.822C185.21 45.0476 185.463 45.2595 185.666 45.4577L189.31 49.025L188.035 50.2977ZM183.467 54.8542L176.907 48.4331L178.032 47.3105L179.927 49.1655L180.078 49.0154L184.743 53.5815L183.467 54.8542ZM193.758 44.9482C193.092 45.6126 192.376 46.0302 191.611 46.2012C190.846 46.3721 190.078 46.326 189.307 46.0628C188.54 45.7957 187.822 45.339 187.154 44.693C186.482 44.0271 186.013 43.3144 185.747 42.5549C185.477 41.7914 185.429 41.0309 185.603 40.2733C185.777 39.5157 186.193 38.8087 186.851 38.1523C187.561 37.4439 188.345 37.014 189.202 36.8625C190.064 36.707 190.885 36.8525 191.665 37.2988L190.778 38.9042C190.285 38.6676 189.795 38.5923 189.308 38.6783C188.821 38.7563 188.394 38.9774 188.029 39.3416C187.616 39.7538 187.376 40.1891 187.31 40.6475C187.24 41.1019 187.31 41.5596 187.522 42.0206C187.734 42.4816 188.057 42.9282 188.49 43.3603C189.17 44.0182 189.869 44.4012 190.587 44.5093C191.309 44.6134 191.967 44.3693 192.561 43.7769C192.966 43.3727 193.2 42.9554 193.262 42.5249C193.325 42.0865 193.246 41.6288 193.026 41.1519L194.605 40.1764C195.033 41.0148 195.174 41.8466 195.029 42.6718C194.879 43.493 194.456 44.2518 193.758 44.9482ZM200.524 38.1979C199.878 38.8423 199.169 39.2698 198.396 39.4807C197.623 39.6835 196.845 39.6713 196.062 39.444C195.279 39.2088 194.549 38.7602 193.873 38.0983C193.156 37.3967 192.666 36.6562 192.405 35.8768C192.147 35.0934 192.113 34.3228 192.303 33.5651C192.493 32.8074 192.905 32.1124 193.539 31.4801C194.201 30.8197 194.92 30.41 195.697 30.2509C196.47 30.0879 197.257 30.1718 198.056 30.5025C198.86 30.8293 199.631 31.4011 200.368 32.2181L199.111 33.4728L198.649 33.021C197.88 32.2838 197.172 31.8769 196.527 31.8003C195.886 31.7198 195.28 31.9636 194.711 32.532C194.081 33.1603 193.808 33.8288 193.892 34.5373C193.976 35.2459 194.396 35.9708 195.154 36.712C195.875 37.4176 196.592 37.8065 197.306 37.8787C198.015 37.947 198.669 37.683 199.267 37.0867C199.66 36.6945 199.91 36.2691 200.017 35.8105C200.123 35.344 200.089 34.8662 199.913 34.3771L201.541 33.5329C201.876 34.3597 201.948 35.1879 201.759 36.0173C201.565 36.8427 201.154 37.5696 200.524 38.1979ZM195.103 37.471L194.113 36.5019L198.752 31.8733L199.742 32.8425L195.103 37.471Z" fill="black"/>
<g clip-path="url(#clip7_248_1065)">
<path d="M146.503 92.5113C148.098 94.0723 148.11 96.6156 146.531 98.1918C144.951 99.7681 142.377 99.7804 140.782 98.2193C139.187 96.6582 139.175 94.115 140.755 92.5387C142.335 90.9625 144.908 90.9502 146.503 92.5113ZM146.503 92.5113L134.952 81.2051L142.846 79.0371" stroke="black" stroke-width="1.83333" stroke-linecap="round" stroke-linejoin="round"/>
</g>
<rect width="136.798" height="47.8835" rx="23.9417" transform="matrix(0.199591 -0.979879 0.979037 0.203683 15.5283 318.415)" fill="url(#paint8_linear_248_1065)"/>
<path d="M55.8739 273.032L43.8905 270.539L44.2112 268.964L54.1093 266.492L45.9772 260.294L46.3013 258.703L58.2764 261.194L57.9405 262.844L49.7435 261.138L57.1599 266.718L56.9987 267.51L48.0028 269.684L56.2081 271.391L55.8739 273.032ZM59.8223 254.925C59.6402 255.819 59.286 256.564 58.7597 257.161C58.2289 257.751 57.5756 258.162 56.7996 258.394C56.0193 258.619 55.1658 258.636 54.2393 258.443C53.2574 258.239 52.4431 257.878 51.7965 257.362C51.1511 256.84 50.6987 256.207 50.4394 255.465C50.1801 254.722 50.1398 253.912 50.3185 253.035C50.5051 252.118 50.8776 251.383 51.436 250.827C51.9888 250.271 52.6886 249.916 53.5353 249.762C54.3831 249.603 55.3384 249.669 56.4011 249.959L56.0466 251.7L55.4141 251.568C54.3689 251.362 53.557 251.402 52.9785 251.687C52.4012 251.966 52.0322 252.5 51.8716 253.288C51.694 254.16 51.8352 254.872 52.295 255.425C52.7549 255.978 53.5036 256.363 54.5411 256.578C55.5286 256.784 56.3389 256.724 56.9719 256.398C57.5994 256.072 57.9974 255.495 58.1659 254.667C58.2768 254.123 58.2503 253.628 58.0865 253.183C57.9183 252.732 57.6265 252.347 57.2113 252.029L58.1 250.434C58.8332 250.951 59.3493 251.611 59.6484 252.414C59.9419 253.216 59.9999 254.053 59.8223 254.925ZM54.9167 257.247L53.5602 256.965L54.8683 250.543L56.2247 250.825L54.9167 257.247ZM61.762 245.402C61.5912 246.24 61.2356 246.922 60.6951 247.446C60.1557 247.965 59.4943 248.316 58.7107 248.5C57.9228 248.678 57.0794 248.673 56.1807 248.486C55.2764 248.298 54.5031 247.964 53.8608 247.483C53.213 247.001 52.746 246.412 52.4599 245.715C52.1694 245.012 52.11 244.239 52.282 243.395C52.455 242.545 52.8084 241.875 53.3421 241.384C53.8714 240.887 54.5239 240.565 55.2995 240.42C56.0762 240.269 56.914 240.287 57.8127 240.474C58.7115 240.661 59.4882 240.979 60.1428 241.427C60.7974 241.876 61.2761 242.436 61.579 243.107C61.8763 243.776 61.9373 244.541 61.762 245.402ZM60.2384 244.833C60.3549 244.261 60.314 243.767 60.1157 243.349C59.9173 242.932 59.5966 242.59 59.1534 242.324C58.7102 242.058 58.1779 241.861 57.5566 241.731C56.9352 241.602 56.3684 241.574 55.8562 241.647C55.3452 241.714 54.9203 241.898 54.5816 242.198C54.2441 242.492 54.0199 242.911 53.9091 243.456C53.7914 244.033 53.8362 244.537 54.0434 244.968C54.2505 245.399 54.574 245.756 55.0138 246.038C55.4547 246.315 55.9692 246.515 56.5573 246.637C57.1509 246.761 57.7072 246.784 58.226 246.707C58.7405 246.623 59.1759 246.43 59.5324 246.128C59.89 245.82 60.1253 245.388 60.2384 244.833ZM62.0587 242.668L55.5926 241.323L55.5519 241.523L50.0345 240.375L50.3908 238.626L62.3742 241.119L62.0587 242.668ZM52.4223 236.446L50.733 236.094L51.0875 234.353L52.7769 234.705L52.4223 236.446ZM62.8828 238.622L53.8953 236.752L54.2498 235.011L63.2374 236.881L62.8828 238.622ZM64.7803 230.584C64.5926 231.506 64.2278 232.246 63.6861 232.805C63.1443 233.363 62.4806 233.74 61.6948 233.936C60.9101 234.126 60.0623 234.129 59.1513 233.945C58.2259 233.747 57.4438 233.399 56.8049 232.901C56.1605 232.402 55.702 231.786 55.4293 231.052C55.1566 230.318 55.113 229.496 55.2985 228.585C55.4987 227.602 55.9136 226.815 56.5432 226.222C57.1739 225.624 57.9363 225.302 58.8304 225.257L58.9768 227.093C58.4369 227.16 57.9881 227.362 57.6304 227.699C57.2683 228.028 57.0358 228.446 56.9328 228.951C56.8163 229.523 56.8567 230.021 57.0539 230.444C57.2455 230.866 57.5563 231.214 57.9861 231.489C58.4159 231.763 58.9299 231.966 59.5279 232.096C60.4555 232.283 61.2475 232.228 61.9037 231.93C62.5611 231.627 62.9735 231.065 63.1409 230.243C63.2551 229.682 63.2197 229.203 63.0346 228.806C62.8451 228.402 62.5277 228.058 62.0824 227.774L62.8581 226.095C63.6748 226.571 64.2499 227.198 64.5834 227.973C64.9115 228.747 64.9771 229.618 64.7803 230.584ZM66.4192 222.538C66.2835 223.204 66.0478 223.737 65.7121 224.136C65.3708 224.534 64.9739 224.807 64.5214 224.956C64.0645 225.098 63.5919 225.118 63.1037 225.017C62.6488 224.922 62.2658 224.759 61.9546 224.526C61.6434 224.293 61.4008 223.994 61.2267 223.628C61.0471 223.261 60.9293 222.831 60.8734 222.339C60.8383 221.915 60.8278 221.441 60.842 220.917C60.8561 220.394 60.8809 219.846 60.9164 219.275C60.9529 218.698 60.9884 218.126 61.0227 217.56L61.2432 218.266C60.5409 218.108 59.9889 218.15 59.5871 218.39C59.181 218.624 58.9015 219.116 58.7488 219.865C58.6527 220.337 58.6754 220.794 58.8171 221.234C58.9531 221.673 59.2577 222.023 59.7309 222.284L58.9008 223.804C58.1749 223.421 57.6478 222.872 57.3196 222.155C56.9924 221.433 56.9346 220.553 57.1461 219.515C57.3101 218.709 57.5913 218.039 57.9897 217.502C58.3837 216.959 58.9058 216.611 59.556 216.456C59.8794 216.373 60.2082 216.349 60.5423 216.384C60.8764 216.419 61.2321 216.475 61.6094 216.554L67.1434 217.705L66.8295 219.246L64.774 218.818L65.1014 218.574C65.7136 219.089 66.13 219.67 66.3508 220.318C66.5672 220.959 66.59 221.699 66.4192 222.538ZM65.059 221.934C65.1596 221.439 65.1602 220.997 65.0606 220.606C64.9554 220.213 64.789 219.881 64.5612 219.607C64.3335 219.334 64.0794 219.134 63.7989 219.006C63.5519 218.856 63.263 218.741 62.9324 218.661C62.6029 218.575 62.3383 218.511 62.1386 218.47L62.462 217.947C62.4333 218.514 62.4064 219.029 62.3813 219.492C62.3563 219.956 62.3397 220.378 62.3317 220.758C62.3192 221.132 62.3285 221.47 62.3596 221.771C62.3941 222.027 62.4505 222.262 62.5285 222.475C62.6077 222.682 62.7192 222.859 62.863 223.005C63.008 223.145 63.1997 223.24 63.4383 223.289C63.6713 223.338 63.8995 223.325 64.123 223.249C64.3409 223.173 64.5325 223.028 64.6976 222.813C64.8627 222.599 64.9832 222.306 65.059 221.934ZM67.6178 215.376L55.3848 212.831L55.7394 211.09L67.9724 213.635L67.6178 215.376Z" fill="black"/>
<g clip-path="url(#clip8_248_1065)">
<path d="M42.5434 297.083L49.4485 292.196M52.6154 297.372L46.2816 287.02C45.9932 286.538 45.6166 286.124 45.1736 285.801C44.7306 285.479 44.23 285.254 43.7007 285.141C43.1714 285.028 42.624 285.029 42.09 285.142C41.556 285.256 41.0461 285.481 40.5897 285.804C40.1334 286.127 39.7396 286.542 39.4313 287.024C39.1229 287.506 38.906 288.047 38.7932 288.615C38.6804 289.182 38.6739 289.766 38.774 290.331C38.8741 290.896 39.0789 291.432 39.3765 291.907L45.7103 302.259C45.9987 302.741 46.3753 303.155 46.8183 303.478C47.2613 303.8 47.7619 304.025 48.2912 304.138C48.8205 304.251 49.368 304.251 49.9019 304.137C50.4359 304.023 50.9458 303.798 51.4022 303.475C51.8586 303.152 52.2523 302.738 52.5607 302.255C52.869 301.773 53.0859 301.232 53.1987 300.664C53.3115 300.097 53.318 299.514 53.2179 298.948C53.1178 298.383 52.913 297.847 52.6154 297.372Z" stroke="black" stroke-width="1.83333" stroke-linecap="round" stroke-linejoin="round"/>
</g>
<rect width="205.897" height="48.3093" rx="24.1547" transform="matrix(0.935295 0.353869 -0.347364 0.93773 152.93 222.838)" fill="url(#paint9_linear_248_1065)"/>
<path d="M191.843 269.859L196.095 258.382L197.597 258.95L198.549 269.152L205.873 262.081L207.392 262.656L203.143 274.126L201.569 273.53L204.477 265.679L197.869 272.139L197.114 271.854L196.32 262.593L193.409 270.452L191.843 269.859ZM207.703 276.133C207.067 275.892 206.578 275.574 206.235 275.178C205.895 274.776 205.685 274.339 205.606 273.867C205.534 273.392 205.585 272.92 205.758 272.452C205.92 272.017 206.138 271.663 206.414 271.392C206.69 271.121 207.021 270.928 207.408 270.814C207.797 270.694 208.237 270.646 208.73 270.669C209.153 270.702 209.622 270.767 210.136 270.864C210.649 270.962 211.185 271.073 211.743 271.2C212.305 271.328 212.863 271.454 213.415 271.578L212.687 271.684C212.948 271.013 212.99 270.46 212.813 270.023C212.643 269.584 212.201 269.228 211.485 268.958C211.035 268.787 210.582 268.737 210.127 268.807C209.674 268.872 209.284 269.118 208.956 269.546L207.583 268.481C208.069 267.822 208.689 267.388 209.444 267.176C210.204 266.967 211.08 267.05 212.071 267.425C212.84 267.716 213.458 268.102 213.927 268.582C214.403 269.059 214.668 269.632 214.722 270.3C214.756 270.634 214.73 270.964 214.646 271.289C214.562 271.615 214.453 271.958 214.319 272.32L212.355 277.62L210.885 277.064L211.614 275.095L211.806 275.458C211.206 275.983 210.571 276.303 209.9 276.419C209.236 276.531 208.504 276.436 207.703 276.133ZM208.503 274.881C208.974 275.06 209.41 275.131 209.81 275.094C210.213 275.053 210.565 274.941 210.868 274.758C211.172 274.576 211.407 274.356 211.575 274.099C211.76 273.878 211.916 273.61 212.045 273.295C212.179 272.982 212.281 272.73 212.352 272.539L212.819 272.943C212.265 272.824 211.761 272.715 211.308 272.617C210.855 272.518 210.442 272.434 210.069 272.366C209.703 272.294 209.369 272.249 209.067 272.232C208.809 272.226 208.57 272.244 208.348 272.287C208.132 272.333 207.942 272.415 207.776 272.534C207.617 272.656 207.495 272.831 207.41 273.059C207.327 273.282 207.306 273.511 207.347 273.744C207.389 273.972 207.503 274.185 207.69 274.383C207.877 274.581 208.147 274.747 208.503 274.881ZM218.004 280.03C217.124 279.697 216.45 279.218 215.981 278.592C215.512 277.966 215.24 277.248 215.165 276.439C215.096 275.631 215.22 274.79 215.537 273.917C215.871 273.031 216.331 272.312 216.917 271.758C217.505 271.199 218.181 270.842 218.944 270.689C219.708 270.536 220.525 270.624 221.394 270.953C222.332 271.307 223.046 271.844 223.535 272.562C224.03 273.283 224.232 274.089 224.143 274.983L222.312 274.835C222.327 274.289 222.196 273.813 221.918 273.405C221.647 272.993 221.271 272.696 220.788 272.514C220.242 272.307 219.746 272.268 219.3 272.396C218.856 272.519 218.466 272.771 218.131 273.153C217.796 273.536 217.52 274.013 217.302 274.584C216.979 275.474 216.914 276.267 217.109 276.965C217.309 277.665 217.801 278.163 218.586 278.46C219.121 278.662 219.598 278.704 220.017 278.584C220.444 278.46 220.83 278.2 221.176 277.804L222.714 278.84C222.122 279.574 221.419 280.044 220.605 280.251C219.793 280.453 218.926 280.379 218.004 280.03ZM229.483 284.1L231.051 279.868C231.175 279.533 231.272 279.179 231.344 278.807C231.423 278.431 231.439 278.061 231.392 277.698C231.351 277.337 231.221 277.009 231.004 276.715C230.792 276.423 230.458 276.19 230.002 276.018C229.705 275.906 229.406 275.85 229.103 275.851C228.803 275.846 228.512 275.914 228.23 276.056C227.953 276.2 227.69 276.428 227.442 276.74C227.199 277.053 226.982 277.465 226.793 277.976L225.905 277.194C226.194 276.413 226.595 275.78 227.107 275.295C227.621 274.805 228.212 274.496 228.882 274.367C229.552 274.239 230.274 274.321 231.048 274.614C231.642 274.839 232.104 275.123 232.436 275.467C232.768 275.81 233.001 276.186 233.134 276.594C233.274 276.998 233.342 277.409 233.339 277.826C233.336 278.242 233.293 278.635 233.211 279.004C233.128 279.373 233.038 279.69 232.94 279.956L231.168 284.738L229.483 284.1ZM223.449 281.817L227.7 270.34L229.187 270.902L226.893 277.095L227.092 277.171L225.134 282.455L223.449 281.817ZM237.109 275.563L237.709 273.945L239.37 274.573L238.771 276.191L237.109 275.563ZM233.398 285.582L236.587 276.973L238.248 277.602L235.059 286.21L233.398 285.582ZM243.473 289.394L245.041 285.161C245.165 284.826 245.263 284.473 245.334 284.1C245.413 283.724 245.429 283.354 245.382 282.991C245.341 282.63 245.211 282.302 244.994 282.008C244.782 281.716 244.448 281.484 243.992 281.311C243.696 281.199 243.396 281.143 243.094 281.144C242.793 281.139 242.502 281.208 242.22 281.349C241.943 281.493 241.68 281.721 241.432 282.033C241.189 282.347 240.973 282.759 240.784 283.269L239.895 282.487C240.184 281.706 240.585 281.073 241.097 280.588C241.611 280.098 242.203 279.789 242.873 279.661C243.542 279.532 244.264 279.615 245.038 279.907C245.632 280.132 246.094 280.416 246.426 280.76C246.758 281.104 246.991 281.479 247.124 281.887C247.264 282.291 247.332 282.702 247.329 283.119C247.326 283.536 247.283 283.928 247.201 284.297C247.119 284.666 247.028 284.983 246.93 285.249L245.158 290.031L243.473 289.394ZM237.439 287.111L240.628 278.502L242.114 279.065L241.193 281.552L241.392 281.627L239.124 287.748L237.439 287.111ZM250.84 292.454C249.987 292.131 249.305 291.661 248.797 291.044C248.295 290.424 247.988 289.712 247.876 288.906C247.771 288.096 247.882 287.248 248.211 286.361C248.56 285.42 249.037 284.671 249.642 284.112C250.253 283.556 250.944 283.208 251.715 283.07C252.485 282.931 253.289 283.02 254.126 283.337C255.001 283.668 255.67 284.154 256.133 284.796C256.598 285.432 256.843 286.182 256.868 287.046C256.897 287.911 256.69 288.848 256.244 289.854L254.583 289.226L254.807 288.62C255.166 287.617 255.249 286.806 255.055 286.188C254.867 285.571 254.396 285.12 253.644 284.835C252.812 284.521 252.089 284.547 251.475 284.915C250.862 285.282 250.371 285.963 250.003 286.957C249.652 287.903 249.59 288.715 249.816 289.394C250.044 290.068 250.552 290.554 251.342 290.853C251.861 291.05 252.353 291.102 252.815 291.011C253.286 290.916 253.708 290.688 254.084 290.327L255.522 291.462C254.902 292.106 254.175 292.513 253.339 292.681C252.505 292.844 251.672 292.768 250.84 292.454ZM249.288 287.222L249.769 285.923L255.899 288.242L255.417 289.542L249.288 287.222ZM259.95 295.628L264.29 283.911L265.952 284.539L261.611 296.256L259.95 295.628ZM267.718 298.839C266.865 298.517 266.184 298.047 265.675 297.43C265.173 296.81 264.866 296.097 264.754 295.292C264.649 294.482 264.761 293.634 265.089 292.747C265.438 291.806 265.915 291.057 266.521 290.498C267.132 289.942 267.822 289.594 268.593 289.455C269.363 289.317 270.167 289.406 271.005 289.723C271.879 290.054 272.548 290.54 273.011 291.182C273.476 291.818 273.721 292.568 273.746 293.432C273.776 294.297 273.568 295.233 273.122 296.24L271.461 295.612L271.685 295.006C272.045 294.003 272.127 293.192 271.934 292.573C271.745 291.957 271.275 291.506 270.522 291.221C269.69 290.907 268.967 290.933 268.353 291.301C267.74 291.668 267.249 292.349 266.881 293.343C266.531 294.288 266.468 295.101 266.694 295.78C266.922 296.454 267.431 296.94 268.22 297.239C268.74 297.436 269.231 297.488 269.694 297.397C270.164 297.302 270.587 297.074 270.962 296.713L272.4 297.848C271.781 298.492 271.053 298.899 270.217 299.067C269.383 299.23 268.55 299.154 267.718 298.839ZM266.166 293.608L266.647 292.309L272.777 294.628L272.296 295.927L266.166 293.608ZM275.667 301.847C275.031 301.606 274.541 301.288 274.199 300.891C273.858 300.49 273.648 300.053 273.569 299.581C273.498 299.106 273.548 298.634 273.722 298.166C273.883 297.731 274.102 297.377 274.377 297.106C274.653 296.835 274.984 296.642 275.371 296.528C275.76 296.408 276.201 296.36 276.694 296.383C277.117 296.416 277.585 296.481 278.099 296.578C278.613 296.676 279.148 296.787 279.706 296.914C280.269 297.042 280.826 297.168 281.378 297.292L280.65 297.398C280.911 296.727 280.953 296.174 280.776 295.737C280.607 295.297 280.164 294.942 279.449 294.672C278.998 294.501 278.545 294.451 278.09 294.521C277.637 294.586 277.247 294.832 276.919 295.26L275.546 294.195C276.032 293.536 276.652 293.102 277.407 292.89C278.168 292.681 279.043 292.764 280.034 293.139C280.803 293.43 281.421 293.815 281.89 294.296C282.366 294.773 282.631 295.346 282.686 296.014C282.719 296.348 282.694 296.678 282.609 297.003C282.525 297.329 282.416 297.672 282.282 298.034L280.319 303.334L278.848 302.778L279.577 300.809L279.769 301.172C279.17 301.697 278.534 302.017 277.863 302.133C277.199 302.245 276.467 302.15 275.667 301.847ZM276.466 300.595C276.937 300.774 277.373 300.845 277.774 300.808C278.176 300.766 278.528 300.655 278.832 300.472C279.135 300.29 279.37 300.07 279.538 299.813C279.723 299.592 279.879 299.324 280.008 299.009C280.142 298.696 280.245 298.444 280.315 298.253L280.782 298.657C280.228 298.538 279.724 298.429 279.272 298.331C278.819 298.232 278.405 298.148 278.032 298.08C277.666 298.008 277.332 297.963 277.03 297.946C276.773 297.939 276.533 297.958 276.312 298.001C276.095 298.047 275.905 298.129 275.74 298.248C275.58 298.37 275.458 298.545 275.373 298.773C275.29 298.996 275.269 299.225 275.31 299.458C275.352 299.686 275.467 299.899 275.653 300.097C275.84 300.295 276.111 300.461 276.466 300.595ZM282.383 304.115L285.572 295.507L287.05 296.066L286.277 298.155L286.171 297.805C286.379 297.569 286.61 297.369 286.864 297.205C287.121 297.035 287.388 296.918 287.665 296.853C287.942 296.776 288.228 296.745 288.525 296.76C288.828 296.772 289.124 296.823 289.411 296.914C289.699 296.999 289.965 297.114 290.207 297.26L289.628 298.823C289.375 298.642 289.07 298.503 288.713 298.404C288.362 298.308 288.009 298.298 287.654 298.376C287.319 298.449 287.026 298.58 286.774 298.77C286.528 298.962 286.313 299.198 286.13 299.481C285.949 299.757 285.796 300.066 285.67 300.406L284.06 304.75L282.383 304.115ZM294.558 308.722L296.126 304.489C296.25 304.154 296.348 303.801 296.419 303.428C296.498 303.052 296.514 302.682 296.467 302.319C296.426 301.958 296.296 301.631 296.079 301.336C295.867 301.044 295.533 300.812 295.077 300.639C294.781 300.527 294.481 300.471 294.179 300.472C293.878 300.467 293.587 300.536 293.305 300.677C293.028 300.821 292.765 301.049 292.517 301.361C292.274 301.675 292.058 302.087 291.869 302.597L290.98 301.815C291.269 301.034 291.67 300.401 292.182 299.916C292.696 299.426 293.288 299.117 293.958 298.989C294.627 298.86 295.349 298.943 296.123 299.235C296.717 299.46 297.179 299.744 297.511 300.088C297.843 300.432 298.076 300.807 298.209 301.215C298.349 301.62 298.417 302.03 298.414 302.447C298.411 302.864 298.368 303.256 298.286 303.625C298.204 303.994 298.113 304.311 298.015 304.577L296.243 309.359L294.558 308.722ZM288.524 306.439L291.713 297.83L293.199 298.393L292.278 300.88L292.477 300.955L290.209 307.076L288.524 306.439ZM302.184 300.184L302.784 298.566L304.445 299.194L303.846 300.812L302.184 300.184ZM298.473 310.203L301.662 301.595L303.323 302.223L300.135 310.832L298.473 310.203ZM308.548 314.015L310.116 309.782C310.24 309.448 310.338 309.094 310.409 308.721C310.488 308.345 310.504 307.975 310.457 307.612C310.416 307.251 310.287 306.924 310.069 306.629C309.857 306.337 309.523 306.105 309.068 305.932C308.771 305.82 308.471 305.764 308.169 305.765C307.868 305.76 307.577 305.829 307.295 305.971C307.018 306.114 306.755 306.342 306.507 306.654C306.264 306.968 306.048 307.38 305.859 307.89L304.97 307.108C305.259 306.327 305.66 305.694 306.172 305.209C306.686 304.719 307.278 304.41 307.948 304.282C308.618 304.154 309.339 304.236 310.113 304.529C310.707 304.753 311.17 305.037 311.502 305.381C311.833 305.725 312.066 306.1 312.199 306.508C312.339 306.913 312.408 307.323 312.404 307.74C312.401 308.157 312.358 308.55 312.276 308.918C312.194 309.287 312.103 309.604 312.005 309.87L310.233 314.652L308.548 314.015ZM302.514 311.732L305.703 303.123L307.189 303.686L306.268 306.173L306.467 306.248L304.199 312.37L302.514 311.732ZM314.336 320.84C313.875 320.665 313.454 320.424 313.072 320.116C312.696 319.81 312.383 319.449 312.132 319.033C311.879 318.622 311.712 318.168 311.63 317.671L313.454 317.47C313.504 317.907 313.669 318.276 313.951 318.576C314.232 318.877 314.564 319.099 314.946 319.243C315.417 319.422 315.852 319.489 316.248 319.446C316.643 319.407 316.988 319.253 317.281 318.982C317.58 318.713 317.818 318.331 317.996 317.835L318.888 315.428L319.087 315.503L321.463 309.087L322.934 309.643L319.66 318.482C319.575 318.711 319.486 318.926 319.394 319.127C319.301 319.328 319.195 319.524 319.076 319.716C318.74 320.249 318.329 320.639 317.845 320.886C317.366 321.135 316.827 321.252 316.228 321.237C315.635 321.225 315.004 321.092 314.336 320.84ZM315.626 316.965C314.826 316.663 314.208 316.202 313.773 315.583C313.343 314.965 313.096 314.254 313.031 313.448C312.975 312.639 313.106 311.804 313.425 310.943C313.745 310.077 314.191 309.364 314.761 308.804C315.333 308.239 315.983 307.87 316.712 307.698C317.448 307.522 318.218 307.586 319.024 307.891C319.835 308.198 320.442 308.655 320.846 309.262C321.256 309.865 321.475 310.563 321.502 311.355C321.535 312.149 321.391 312.976 321.072 313.837C320.754 314.698 320.324 315.417 319.784 315.994C319.244 316.571 318.621 316.956 317.915 317.15C317.21 317.338 316.448 317.276 315.626 316.965ZM316.415 315.546C316.961 315.753 317.454 315.791 317.895 315.661C318.336 315.531 318.721 315.268 319.049 314.871C319.377 314.474 319.652 313.978 319.872 313.383C320.092 312.788 320.205 312.23 320.21 311.711C320.22 311.194 320.103 310.744 319.859 310.36C319.619 309.979 319.24 309.69 318.72 309.494C318.169 309.285 317.666 309.249 317.21 309.386C316.755 309.522 316.355 309.786 316.011 310.177C315.672 310.57 315.398 311.048 315.189 311.611C314.979 312.18 314.873 312.727 314.871 313.254C314.877 313.777 315.002 314.239 315.246 314.64C315.495 315.044 315.885 315.346 316.415 315.546Z" fill="black"/>
<g clip-path="url(#clip9_248_1065)">
<path d="M175.43 249.895C175.637 249.517 175.768 249.1 175.813 248.67C175.859 248.24 175.82 247.805 175.697 247.391C175.574 246.976 175.37 246.591 175.098 246.258C174.825 245.924 174.49 245.649 174.11 245.448C173.731 245.247 173.316 245.126 172.89 245.089C172.463 245.053 172.034 245.104 171.627 245.238C171.22 245.372 170.844 245.587 170.52 245.87C170.197 246.153 169.932 246.499 169.743 246.887M175.43 249.895L168.723 262.212M175.43 249.895C175.635 249.515 175.913 249.181 176.248 248.912C176.583 248.643 176.968 248.444 177.38 248.327C177.792 248.21 178.223 248.178 178.648 248.232C179.073 248.286 179.482 248.425 179.853 248.642C180.223 248.858 180.547 249.147 180.806 249.492C181.064 249.837 181.252 250.23 181.358 250.649C181.463 251.069 181.485 251.505 181.421 251.933C181.358 252.36 181.21 252.771 180.987 253.14M169.743 246.887C169.114 246.723 168.456 246.707 167.82 246.839C167.184 246.97 166.585 247.246 166.07 247.646C165.555 248.046 165.137 248.559 164.847 249.147C164.558 249.734 164.404 250.38 164.398 251.037M169.743 246.887C169.512 247.355 169.396 247.874 169.407 248.397M164.398 251.037C163.712 251.162 163.066 251.455 162.518 251.891C161.969 252.326 161.534 252.89 161.25 253.534C160.967 254.178 160.843 254.882 160.89 255.585C160.937 256.288 161.153 256.969 161.52 257.569M164.398 251.037C164.646 250.991 164.898 250.968 165.15 250.967M161.52 257.569C161.175 258.046 160.93 258.59 160.8 259.166C160.671 259.743 160.66 260.34 160.768 260.921C160.876 261.503 161.101 262.055 161.428 262.545C161.756 263.035 162.18 263.452 162.673 263.77C163.166 264.088 163.719 264.3 164.296 264.394C164.874 264.488 165.464 264.461 166.031 264.315C166.598 264.169 167.13 263.907 167.593 263.546C168.056 263.184 168.44 262.73 168.723 262.212M161.52 257.569C161.908 258.202 162.451 258.725 163.098 259.084M168.723 262.212C168.441 262.731 168.268 263.302 168.213 263.891C168.159 264.479 168.224 265.073 168.406 265.635C168.587 266.198 168.881 266.716 169.268 267.159C169.656 267.602 170.129 267.96 170.659 268.211C171.188 268.462 171.763 268.601 172.348 268.618C172.933 268.636 173.515 268.532 174.059 268.313C174.602 268.094 175.096 267.765 175.509 267.346C175.921 266.927 176.245 266.427 176.459 265.877M180.987 253.14C181.461 253.59 181.826 254.143 182.057 254.756C182.287 255.37 182.377 256.028 182.318 256.682C182.259 257.336 182.054 257.967 181.718 258.529C181.382 259.091 180.924 259.568 180.379 259.924M180.987 253.14C180.719 253.588 180.348 253.964 179.905 254.236M180.379 259.924C180.641 260.578 180.741 261.285 180.671 261.987C180.601 262.688 180.362 263.361 179.976 263.948C179.589 264.535 179.067 265.017 178.454 265.353C177.841 265.689 177.156 265.869 176.459 265.877M180.379 259.924C180.284 259.688 180.169 259.461 180.034 259.245M176.459 265.877C175.721 265.884 174.994 265.7 174.348 265.341M174.115 259.039C173.48 258.322 173.07 257.43 172.937 256.477C172.804 255.524 172.953 254.552 173.366 253.685C172.862 254.502 172.13 255.149 171.262 255.545C170.394 255.942 169.429 256.069 168.49 255.911" stroke="black" stroke-width="1.83333" stroke-linecap="round" stroke-linejoin="round"/>
</g>
<defs>
<linearGradient id="paint0_linear_248_1065" x1="59.6237" y1="0" x2="59.6237" y2="48.3023" gradientUnits="userSpaceOnUse">
<stop stop-color="#FFBEFE"/>
<stop offset="1" stop-color="#F596F4"/>
</linearGradient>
<linearGradient id="paint1_linear_248_1065" x1="67.3669" y1="-0.000289956" x2="67.5505" y2="48.4866" gradientUnits="userSpaceOnUse">
<stop stop-color="#FFC4C4"/>
<stop offset="1" stop-color="#FEABAB"/>
</linearGradient>
<linearGradient id="paint2_linear_248_1065" x1="60.3815" y1="2.46016e-06" x2="67.1244" y2="48.0159" gradientUnits="userSpaceOnUse">
<stop stop-color="#BCC9EB"/>
<stop offset="1" stop-color="#A1B3E3"/>
</linearGradient>
<linearGradient id="paint3_linear_248_1065" x1="90.7519" y1="47.8896" x2="36.3535" y2="53.1073" gradientUnits="userSpaceOnUse">
<stop stop-color="#FFE575"/>
<stop offset="1" stop-color="#FAE89C"/>
</linearGradient>
<linearGradient id="paint4_linear_248_1065" x1="122.984" y1="286.969" x2="147.4" y2="335.34" gradientUnits="userSpaceOnUse">
<stop stop-color="#A2BBFF"/>
<stop offset="1" stop-color="#C9D7FF"/>
</linearGradient>
<linearGradient id="paint5_linear_248_1065" x1="67.3195" y1="0" x2="67.3195" y2="48.2336" gradientUnits="userSpaceOnUse">
<stop stop-color="#C9F491"/>
<stop offset="1" stop-color="#BCEE7C"/>
</linearGradient>
<linearGradient id="paint6_linear_248_1065" x1="67.3074" y1="0" x2="67.3074" y2="48.2423" gradientUnits="userSpaceOnUse">
<stop stop-color="#CFDCFF"/>
<stop offset="1" stop-color="#A3BBFF"/>
</linearGradient>
<linearGradient id="paint7_linear_248_1065" x1="87.7923" y1="-3.27124e-07" x2="95.1074" y2="39.2532" gradientUnits="userSpaceOnUse">
<stop stop-color="#FFBC98"/>
<stop offset="1" stop-color="#FFA575"/>
</linearGradient>
<linearGradient id="paint8_linear_248_1065" x1="31.521" y1="-0.00020433" x2="38.9492" y2="56.59" gradientUnits="userSpaceOnUse">
<stop stop-color="#F2B1DC"/>
<stop offset="1" stop-color="#F18CCE"/>
</linearGradient>
<linearGradient id="paint9_linear_248_1065" x1="107.382" y1="-0.00055959" x2="119.473" y2="42.3226" gradientUnits="userSpaceOnUse">
<stop stop-color="#DECCFF"/>
<stop offset="1" stop-color="#E7DBFE"/>
</linearGradient>
<clipPath id="clip0_248_1065">
<rect width="25.6981" height="25.9399" fill="white" transform="matrix(0.970306 -0.241881 0.237106 0.971484 80.646 150.855)"/>
</clipPath>
<clipPath id="clip1_248_1065">
<rect width="23.276" height="23.2751" fill="white" transform="matrix(0.712875 -0.701291 0.693715 0.72025 92.2798 243.781)"/>
</clipPath>
<clipPath id="clip2_248_1065">
<rect width="25.7274" height="25.9117" fill="white" transform="matrix(-0.258753 -0.965944 0.968775 -0.247942 311.24 273.024)"/>
</clipPath>
<clipPath id="clip3_248_1065">
<rect width="23.2669" height="23.2844" fill="white" transform="matrix(0.485023 -0.874502 0.872029 0.489454 201.84 222.333)"/>
</clipPath>
<clipPath id="clip4_248_1065">
<rect width="23.2924" height="23.259" fill="white" transform="translate(86.3762 300.452)"/>
</clipPath>
<clipPath id="clip5_248_1065">
<rect width="24.2582" height="24.2326" fill="white" transform="matrix(0.929693 0.368335 -0.359482 0.933152 265.063 36.8264)"/>
</clipPath>
<clipPath id="clip6_248_1065">
<rect width="24.2538" height="24.237" fill="white" transform="matrix(0.859245 0.511564 -0.503618 0.863926 225.615 67.6367)"/>
</clipPath>
<clipPath id="clip7_248_1065">
<rect width="24.2456" height="24.2459" fill="white" transform="matrix(0.707936 -0.706276 0.714661 0.699471 124.925 88.3538)"/>
</clipPath>
<clipPath id="clip8_248_1065">
<rect width="21.2273" height="19.8541" fill="white" transform="matrix(0.199591 -0.979879 0.979037 0.203683 34.1586 303.018)"/>
</clipPath>
<clipPath id="clip9_248_1065">
<rect width="25.7461" height="25.8923" fill="white" transform="matrix(0.873939 0.486035 -0.478207 0.878247 166.759 238.901)"/>
</clipPath>
</defs>
</svg>
