<svg width="384" height="633" viewBox="0 0 384 633" fill="none" xmlns="http://www.w3.org/2000/svg">
<circle cx="191.063" cy="191.063" r="189.563" transform="matrix(-0.124515 0.992218 0.992218 0.124515 151.139 103.068)" stroke="#8D947F" stroke-width="3"/>
<circle cx="148.839" cy="148.839" r="147.539" transform="matrix(-0.124515 0.992218 0.992218 0.124515 211.222 132.949)" stroke="#8D947F" stroke-width="2.6"/>
<circle cx="109.782" cy="109.782" r="108.632" transform="matrix(-0.124515 0.992218 0.992218 0.124515 252.317 170.022)" stroke="#8D947F" stroke-width="2.3"/>
<circle cx="58.5857" cy="58.5857" r="57.6857" transform="matrix(-0.124515 0.992218 0.992218 0.124515 303.224 222.157)" stroke="#8D947F" stroke-width="1.8"/>
<circle cx="306.357" cy="259.379" r="25.5694" transform="rotate(-17.1769 306.357 259.379)" fill="#FF9E9E" stroke="#FFD1D1" stroke-width="3"/>
<path d="M294.343 267.888L294.072 266.99L297.211 261.712C297.48 261.257 297.629 260.86 297.655 260.519C297.685 260.173 297.648 259.833 297.545 259.499C297.422 259.102 297.218 258.772 296.931 258.509C296.645 258.246 296.314 258.069 295.94 257.98C295.564 257.886 295.18 257.9 294.787 258.021C294.377 258.148 294.042 258.359 293.782 258.654C293.521 258.95 293.347 259.287 293.259 259.666C293.175 260.043 293.194 260.421 293.316 260.798L292.313 261.108C292.132 260.524 292.109 259.958 292.242 259.409C292.375 258.86 292.637 258.38 293.028 257.971C293.418 257.558 293.912 257.259 294.509 257.074C295.093 256.893 295.66 256.87 296.209 257.003C296.761 257.13 297.244 257.386 297.656 257.772C298.071 258.151 298.367 258.627 298.543 259.197C298.667 259.598 298.728 259.968 298.725 260.306C298.725 260.638 298.663 260.967 298.539 261.294C298.419 261.615 298.245 261.961 298.018 262.334L295.232 267.02L294.954 266.666L300.338 265.002L300.629 265.945L294.343 267.888ZM304.889 264.848C304.412 264.996 303.946 265.047 303.493 265.001C303.039 264.956 302.619 264.822 302.233 264.6C301.845 264.373 301.517 264.061 301.248 263.666L302.098 263.095C302.405 263.523 302.78 263.803 303.222 263.935C303.667 264.066 304.121 264.055 304.582 263.903C305.007 263.762 305.345 263.552 305.596 263.274C305.852 262.995 306.012 262.667 306.076 262.291C306.141 261.914 306.107 261.512 305.974 261.084C305.772 260.428 305.417 259.962 304.911 259.683C304.408 259.399 303.845 259.354 303.221 259.547C303.047 259.6 302.871 259.681 302.695 259.79C302.517 259.893 302.359 260.013 302.22 260.149L301.483 259.519L304.159 254.904L304.444 255.256L299.535 256.773L299.244 255.83L304.808 254.11L305.103 255.067L302.803 259.192L302.67 258.808C303.313 258.517 303.924 258.411 304.506 258.49C305.087 258.569 305.596 258.807 306.031 259.205C306.47 259.597 306.79 260.119 306.991 260.77C307.181 261.385 307.215 261.97 307.094 262.525C306.976 263.075 306.726 263.555 306.345 263.966C305.963 264.372 305.477 264.666 304.889 264.848ZM310.57 262.88L309.694 262.418L315.906 250.68L316.779 251.135L310.57 262.88ZM317.607 260.924C317.166 261.061 316.729 261.078 316.298 260.977C315.869 260.871 315.49 260.67 315.159 260.377C314.828 260.079 314.593 259.707 314.456 259.261C314.32 258.824 314.308 258.388 314.418 257.954C314.528 257.519 314.732 257.136 315.03 256.805C315.328 256.473 315.691 256.241 316.119 256.109C316.56 255.973 316.998 255.957 317.431 256.063C317.862 256.164 318.242 256.364 318.569 256.663C318.899 256.957 319.133 257.327 319.271 257.772C319.409 258.218 319.425 258.658 319.319 259.091C319.217 259.518 319.017 259.898 318.719 260.229C318.419 260.556 318.049 260.788 317.607 260.924ZM317.332 260.035C317.604 259.951 317.835 259.804 318.024 259.594C318.213 259.384 318.342 259.144 318.41 258.874C318.476 258.599 318.467 258.324 318.381 258.047C318.296 257.771 318.149 257.54 317.94 257.356C317.73 257.167 317.488 257.039 317.214 256.972C316.939 256.906 316.666 256.914 316.394 256.998C316.117 257.084 315.885 257.232 315.696 257.441C315.511 257.65 315.383 257.892 315.312 258.168C315.244 258.438 315.253 258.712 315.338 258.988C315.424 259.264 315.571 259.497 315.781 259.686C315.994 259.87 316.236 259.995 316.506 260.063C316.78 260.13 317.056 260.12 317.332 260.035ZM310.357 257.45C309.916 257.587 309.479 257.605 309.047 257.504C308.614 257.398 308.233 257.199 307.903 256.905C307.576 256.606 307.343 256.233 307.205 255.787C307.07 255.35 307.058 254.914 307.168 254.48C307.277 254.045 307.481 253.662 307.78 253.331C308.078 252.999 308.441 252.768 308.869 252.635C309.31 252.499 309.745 252.484 310.174 252.591C310.606 252.692 310.987 252.891 311.319 253.189C311.649 253.483 311.883 253.853 312.02 254.299C312.158 254.744 312.174 255.184 312.069 255.617C311.962 256.046 311.76 256.426 311.462 256.757C311.167 257.083 310.798 257.314 310.357 257.45ZM310.082 256.561C310.359 256.476 310.589 256.329 310.774 256.12C310.963 255.91 311.091 255.67 311.159 255.4C311.226 255.125 311.216 254.85 311.131 254.574C311.046 254.297 310.899 254.067 310.69 253.882C310.48 253.693 310.238 253.565 309.963 253.498C309.693 253.43 309.42 253.439 309.144 253.525C308.867 253.61 308.634 253.758 308.445 253.968C308.261 254.176 308.135 254.418 308.068 254.692C308.001 254.962 308.009 255.236 308.095 255.512C308.18 255.789 308.328 256.021 308.538 256.21C308.746 256.395 308.986 256.521 309.256 256.589C309.53 256.656 309.806 256.646 310.082 256.561Z" fill="black"/>
<circle cx="137.192" cy="370.921" r="25.5694" transform="rotate(-17.1769 137.192 370.921)" fill="#9EFF8D" stroke="#CAFFD3" stroke-width="3"/>
<path d="M130.039 378.147C129.562 378.294 129.097 378.345 128.643 378.3C128.189 378.255 127.77 378.121 127.383 377.898C126.996 377.671 126.667 377.36 126.399 376.964L127.248 376.394C127.556 376.822 127.931 377.101 128.372 377.234C128.818 377.364 129.271 377.354 129.732 377.201C130.158 377.06 130.496 376.851 130.747 376.573C131.002 376.293 131.162 375.966 131.227 375.589C131.291 375.213 131.257 374.81 131.125 374.382C130.922 373.727 130.568 373.26 130.062 372.982C129.559 372.698 128.995 372.652 128.371 372.845C128.197 372.899 128.022 372.98 127.845 373.088C127.667 373.192 127.509 373.312 127.37 373.448L126.634 372.818L129.31 368.203L129.594 368.554L124.686 370.072L124.394 369.129L129.958 367.409L130.254 368.365L127.954 372.491L127.82 372.107C128.463 371.815 129.075 371.709 129.656 371.788C130.238 371.868 130.746 372.106 131.182 372.504C131.62 372.896 131.94 373.417 132.141 374.068C132.332 374.683 132.366 375.269 132.245 375.824C132.126 376.374 131.877 376.854 131.496 377.265C131.113 377.671 130.628 377.965 130.039 378.147ZM137.689 375.79C137.189 375.944 136.696 375.984 136.209 375.91C135.722 375.836 135.273 375.664 134.863 375.396C134.453 375.127 134.111 374.778 133.837 374.35L134.701 373.805C134.893 374.126 135.14 374.38 135.442 374.565C135.742 374.746 136.062 374.859 136.404 374.905C136.75 374.949 137.088 374.92 137.418 374.818C137.846 374.686 138.197 374.465 138.473 374.155C138.751 373.84 138.938 373.479 139.032 373.074C139.127 372.668 139.111 372.261 138.984 371.851C138.853 371.427 138.63 371.078 138.316 370.804C138 370.526 137.64 370.339 137.235 370.245C136.829 370.15 136.424 370.165 136.018 370.291C135.563 370.431 135.202 370.653 134.934 370.956C134.665 371.254 134.478 371.583 134.374 371.942L133.362 371.844L132.108 366.744L137.251 365.155L137.543 366.098L132.834 367.553L133.18 366.941L134.24 371.295L133.891 371.043C134.07 370.641 134.328 370.291 134.665 369.991C135.002 369.691 135.387 369.475 135.82 369.341C136.413 369.158 136.992 369.135 137.557 369.273C138.121 369.406 138.618 369.67 139.048 370.065C139.477 370.46 139.784 370.954 139.967 371.547C140.149 372.135 140.166 372.721 140.019 373.304C139.871 373.882 139.595 374.395 139.191 374.842C138.787 375.289 138.286 375.605 137.689 375.79ZM143.44 373.792L142.565 373.33L148.776 361.592L149.65 362.047L143.44 373.792ZM150.478 371.837C150.036 371.973 149.6 371.991 149.168 371.89C148.739 371.783 148.36 371.583 148.03 371.289C147.698 370.991 147.464 370.619 147.326 370.173C147.191 369.736 147.178 369.301 147.288 368.866C147.398 368.432 147.602 368.049 147.9 367.717C148.198 367.386 148.561 367.154 148.989 367.021C149.431 366.885 149.868 366.869 150.301 366.975C150.733 367.076 151.112 367.276 151.439 367.576C151.769 367.869 152.003 368.239 152.141 368.685C152.279 369.131 152.295 369.57 152.189 370.003C152.087 370.431 151.887 370.81 151.589 371.141C151.289 371.468 150.919 371.7 150.478 371.837ZM150.203 370.947C150.475 370.863 150.705 370.716 150.894 370.506C151.083 370.296 151.212 370.056 151.28 369.786C151.346 369.512 151.337 369.236 151.251 368.96C151.166 368.683 151.019 368.453 150.811 368.268C150.601 368.079 150.358 367.951 150.084 367.885C149.809 367.818 149.536 367.827 149.264 367.911C148.988 367.996 148.755 368.144 148.566 368.354C148.381 368.562 148.253 368.805 148.182 369.081C148.114 369.351 148.123 369.624 148.209 369.9C148.294 370.177 148.442 370.41 148.652 370.599C148.864 370.782 149.106 370.908 149.376 370.975C149.651 371.042 149.926 371.033 150.203 370.947ZM143.227 368.363C142.786 368.499 142.349 368.517 141.918 368.416C141.484 368.311 141.103 368.111 140.773 367.817C140.446 367.518 140.213 367.145 140.075 366.699C139.94 366.262 139.928 365.827 140.038 365.392C140.148 364.958 140.352 364.575 140.65 364.243C140.948 363.912 141.311 363.68 141.739 363.548C142.18 363.411 142.615 363.396 143.044 363.503C143.476 363.604 143.857 363.804 144.189 364.102C144.519 364.395 144.753 364.765 144.891 365.211C145.028 365.657 145.045 366.096 144.939 366.529C144.832 366.958 144.63 367.338 144.332 367.67C144.037 367.995 143.669 368.226 143.227 368.363ZM142.952 367.473C143.229 367.388 143.459 367.241 143.644 367.032C143.833 366.823 143.962 366.583 144.03 366.312C144.096 366.038 144.087 365.762 144.001 365.486C143.916 365.21 143.769 364.979 143.56 364.794C143.35 364.605 143.108 364.477 142.834 364.411C142.563 364.343 142.29 364.352 142.014 364.437C141.737 364.523 141.505 364.67 141.315 364.88C141.131 365.089 141.005 365.33 140.939 365.605C140.871 365.875 140.879 366.148 140.965 366.424C141.05 366.701 141.198 366.934 141.408 367.123C141.616 367.307 141.856 367.434 142.126 367.502C142.4 367.568 142.676 367.559 142.952 367.473Z" fill="black"/>
<circle cx="212.496" cy="234.438" r="25.5694" transform="rotate(-17.1769 212.496 234.438)" fill="#A3C5FF" stroke="#CEE0FF" stroke-width="3"/>
<path d="M203.427 242.264C202.927 242.419 202.434 242.459 201.947 242.384C201.46 242.31 201.012 242.139 200.601 241.87C200.191 241.601 199.849 241.253 199.575 240.825L200.439 240.279C200.631 240.601 200.878 240.854 201.18 241.039C201.48 241.22 201.8 241.333 202.142 241.379C202.488 241.424 202.826 241.395 203.156 241.293C203.584 241.161 203.935 240.94 204.211 240.63C204.489 240.314 204.676 239.954 204.77 239.548C204.865 239.143 204.849 238.735 204.722 238.325C204.591 237.901 204.368 237.553 204.054 237.278C203.739 237 203.378 236.813 202.973 236.719C202.567 236.624 202.162 236.64 201.756 236.765C201.301 236.906 200.94 237.127 200.672 237.43C200.403 237.728 200.216 238.057 200.112 238.416L199.1 238.319L197.846 233.219L202.989 231.629L203.281 232.572L198.573 234.027L198.918 233.415L199.978 237.769L199.63 237.518C199.808 237.116 200.066 236.765 200.403 236.465C200.74 236.166 201.125 235.949 201.558 235.815C202.151 235.632 202.73 235.609 203.295 235.747C203.859 235.881 204.356 236.145 204.786 236.54C205.215 236.934 205.522 237.428 205.705 238.021C205.887 238.61 205.904 239.195 205.757 239.778C205.609 240.356 205.333 240.869 204.929 241.316C204.525 241.764 204.024 242.08 203.427 242.264ZM211.24 239.849C210.638 240.035 210.068 240.079 209.53 239.982C208.996 239.883 208.531 239.658 208.134 239.307C207.741 238.95 207.454 238.479 207.273 237.895C207.088 237.298 207.069 236.723 207.216 236.169C207.361 235.612 207.693 235.121 208.211 234.697L208.318 235.089C207.766 235.059 207.297 234.877 206.91 234.542C206.524 234.207 206.252 233.788 206.097 233.284C205.931 232.749 205.912 232.252 206.039 231.793C206.164 231.329 206.406 230.927 206.765 230.586C207.128 230.245 207.586 229.988 208.139 229.817C208.692 229.646 209.215 229.6 209.707 229.677C210.2 229.754 210.629 229.949 210.994 230.261C211.358 230.569 211.623 230.99 211.788 231.525C211.944 232.029 211.96 232.524 211.837 233.012C211.719 233.498 211.435 233.915 210.986 234.264L210.833 233.886C211.499 233.939 212.051 234.154 212.49 234.532C212.934 234.907 213.248 235.394 213.432 235.991C213.613 236.576 213.639 237.127 213.511 237.645C213.382 238.159 213.123 238.608 212.733 238.992C212.344 239.376 211.846 239.662 211.24 239.849ZM210.948 238.906C211.555 238.719 211.996 238.399 212.271 237.948C212.546 237.492 212.585 236.947 212.389 236.314C212.191 235.672 211.853 235.244 211.377 235.03C210.899 234.811 210.352 234.797 209.737 234.987C209.122 235.177 208.681 235.497 208.414 235.945C208.146 236.39 208.111 236.933 208.31 237.575C208.505 238.208 208.843 238.636 209.322 238.859C209.8 239.078 210.342 239.093 210.948 238.906ZM209.443 234.037C209.978 233.872 210.371 233.602 210.621 233.226C210.87 232.846 210.912 232.387 210.745 231.847C210.578 231.308 210.286 230.956 209.869 230.792C209.451 230.623 208.974 230.622 208.439 230.787C207.904 230.952 207.511 231.223 207.261 231.598C207.014 231.968 206.973 232.422 207.14 232.962C207.307 233.501 207.598 233.858 208.013 234.032C208.432 234.201 208.908 234.203 209.443 234.037ZM216.937 237.868L216.062 237.406L222.273 225.668L223.147 226.123L216.937 237.868ZM223.974 235.913C223.533 236.049 223.097 236.067 222.665 235.966C222.236 235.859 221.857 235.659 221.527 235.365C221.195 235.067 220.96 234.695 220.823 234.249C220.688 233.812 220.675 233.377 220.785 232.942C220.895 232.508 221.099 232.125 221.397 231.793C221.695 231.462 222.058 231.23 222.486 231.097C222.927 230.961 223.365 230.945 223.798 231.051C224.23 231.152 224.609 231.352 224.936 231.652C225.266 231.945 225.5 232.315 225.638 232.761C225.776 233.207 225.792 233.646 225.686 234.079C225.584 234.507 225.384 234.886 225.086 235.217C224.786 235.544 224.416 235.776 223.974 235.913ZM223.7 235.023C223.972 234.939 224.202 234.792 224.391 234.582C224.58 234.372 224.709 234.132 224.777 233.862C224.843 233.588 224.834 233.312 224.748 233.036C224.663 232.759 224.516 232.529 224.307 232.344C224.098 232.155 223.855 232.027 223.581 231.961C223.306 231.894 223.033 231.903 222.761 231.987C222.485 232.072 222.252 232.22 222.063 232.43C221.878 232.638 221.75 232.881 221.679 233.157C221.611 233.427 221.62 233.7 221.705 233.976C221.791 234.253 221.939 234.486 222.148 234.675C222.361 234.858 222.603 234.984 222.873 235.051C223.148 235.118 223.423 235.109 223.7 235.023ZM216.724 232.439C216.283 232.575 215.846 232.593 215.415 232.492C214.981 232.387 214.6 232.187 214.27 231.893C213.943 231.594 213.71 231.221 213.572 230.775C213.437 230.339 213.425 229.903 213.535 229.468C213.645 229.034 213.849 228.651 214.147 228.319C214.445 227.988 214.808 227.756 215.236 227.624C215.677 227.487 216.112 227.472 216.541 227.579C216.973 227.68 217.354 227.88 217.686 228.178C218.016 228.471 218.25 228.841 218.388 229.287C218.525 229.733 218.542 230.172 218.436 230.606C218.329 231.034 218.127 231.414 217.829 231.746C217.534 232.071 217.166 232.302 216.724 232.439ZM216.449 231.549C216.726 231.464 216.956 231.317 217.141 231.108C217.33 230.899 217.459 230.659 217.526 230.388C217.593 230.114 217.584 229.838 217.498 229.562C217.413 229.286 217.266 229.055 217.057 228.87C216.847 228.681 216.605 228.553 216.331 228.487C216.06 228.419 215.787 228.428 215.511 228.513C215.234 228.599 215.002 228.746 214.812 228.956C214.628 229.165 214.502 229.406 214.436 229.681C214.368 229.951 214.376 230.224 214.462 230.501C214.547 230.777 214.695 231.01 214.905 231.199C215.113 231.384 215.353 231.51 215.623 231.578C215.897 231.644 216.173 231.635 216.449 231.549Z" fill="black"/>
<circle cx="322.376" cy="390.611" r="28.1723" transform="rotate(-17.1769 322.376 390.611)" fill="#FFE57E" stroke="#FFF5CB" stroke-width="3"/>
<path d="M313.079 386.98C313.685 386.793 314.279 386.77 314.861 386.913C315.445 387.05 315.96 387.325 316.406 387.74C316.85 388.149 317.168 388.666 317.361 389.291L318.395 392.635C318.593 393.277 318.626 393.896 318.494 394.494C318.361 395.092 318.088 395.616 317.675 396.066C317.265 396.51 316.742 396.831 316.104 397.028C315.556 397.197 315.01 397.234 314.468 397.138C313.928 397.036 313.441 396.818 313.005 396.484L313.562 395.63C313.865 395.884 314.216 396.054 314.614 396.141C315.016 396.226 315.416 396.208 315.813 396.085C316.268 395.944 316.636 395.713 316.917 395.392C317.202 395.065 317.39 394.694 317.482 394.279C317.577 393.859 317.56 393.442 317.432 393.027L316.783 390.927L317.11 391.134C316.97 391.661 316.713 392.131 316.338 392.545C315.967 392.958 315.51 393.248 314.966 393.416C314.373 393.599 313.791 393.623 313.222 393.486C312.656 393.348 312.159 393.082 311.729 392.687C311.304 392.291 311 391.797 310.816 391.204C310.633 390.611 310.613 390.026 310.757 389.449C310.9 388.868 311.175 388.358 311.582 387.919C311.987 387.477 312.486 387.164 313.079 386.98ZM313.373 387.93C312.953 388.059 312.604 388.28 312.324 388.591C312.043 388.898 311.853 389.255 311.754 389.661C311.659 390.067 311.677 390.479 311.806 390.898C311.936 391.317 312.154 391.667 312.461 391.948C312.767 392.23 313.124 392.42 313.531 392.519C313.936 392.613 314.348 392.596 314.767 392.466C315.187 392.337 315.537 392.119 315.818 391.812C316.102 391.499 316.292 391.14 316.386 390.735C316.485 390.328 316.47 389.915 316.34 389.496C316.212 389.082 315.993 388.734 315.681 388.454C315.375 388.173 315.018 387.983 314.611 387.884C314.205 387.785 313.792 387.8 313.373 387.93ZM324.238 394.514C323.636 394.7 323.066 394.744 322.528 394.647C321.994 394.548 321.529 394.323 321.133 393.972C320.739 393.615 320.452 393.144 320.271 392.56C320.087 391.963 320.067 391.387 320.214 390.834C320.359 390.276 320.691 389.785 321.209 389.361L321.316 389.753C320.765 389.724 320.295 389.541 319.909 389.207C319.522 388.872 319.251 388.453 319.095 387.949C318.93 387.414 318.91 386.917 319.037 386.457C319.162 385.994 319.404 385.592 319.763 385.251C320.126 384.909 320.584 384.653 321.137 384.482C321.69 384.311 322.213 384.264 322.706 384.342C323.198 384.419 323.627 384.613 323.993 384.926C324.356 385.233 324.621 385.654 324.786 386.19C324.942 386.693 324.958 387.189 324.836 387.676C324.717 388.162 324.433 388.58 323.984 388.929L323.831 388.551C324.497 388.604 325.05 388.819 325.489 389.196C325.932 389.572 326.246 390.059 326.431 390.656C326.611 391.24 326.638 391.791 326.51 392.31C326.38 392.823 326.121 393.272 325.732 393.656C325.342 394.04 324.844 394.326 324.238 394.514ZM323.947 393.571C324.553 393.383 324.994 393.064 325.27 392.612C325.544 392.156 325.583 391.612 325.387 390.979C325.189 390.337 324.851 389.908 324.375 389.694C323.897 389.476 323.351 389.461 322.735 389.652C322.12 389.842 321.679 390.161 321.412 390.61C321.144 391.054 321.109 391.598 321.308 392.24C321.504 392.873 321.841 393.301 322.32 393.524C322.798 393.743 323.34 393.758 323.947 393.571ZM322.442 388.702C322.977 388.537 323.369 388.266 323.62 387.891C323.869 387.511 323.91 387.051 323.743 386.512C323.576 385.973 323.284 385.621 322.867 385.457C322.449 385.288 321.972 385.286 321.437 385.452C320.902 385.617 320.509 385.887 320.259 386.263C320.012 386.632 319.971 387.087 320.138 387.626C320.305 388.166 320.596 388.523 321.011 388.697C321.43 388.866 321.907 388.867 322.442 388.702ZM329.935 392.533L329.06 392.071L335.271 380.333L336.145 380.788L329.935 392.533ZM336.973 390.577C336.531 390.714 336.095 390.731 335.663 390.63C335.234 390.524 334.855 390.323 334.525 390.03C334.193 389.732 333.959 389.36 333.821 388.914C333.686 388.477 333.673 388.041 333.783 387.607C333.893 387.172 334.097 386.789 334.395 386.458C334.693 386.126 335.056 385.894 335.484 385.762C335.926 385.626 336.363 385.61 336.796 385.716C337.228 385.817 337.607 386.017 337.934 386.316C338.264 386.61 338.498 386.98 338.636 387.425C338.774 387.871 338.79 388.311 338.685 388.744C338.582 389.171 338.382 389.551 338.084 389.882C337.785 390.209 337.414 390.441 336.973 390.577ZM336.698 389.688C336.97 389.604 337.2 389.457 337.389 389.247C337.579 389.037 337.707 388.797 337.775 388.527C337.842 388.252 337.832 387.977 337.747 387.7C337.661 387.424 337.514 387.193 337.306 387.009C337.096 386.82 336.854 386.692 336.579 386.625C336.304 386.559 336.031 386.567 335.759 386.652C335.483 386.737 335.25 386.885 335.061 387.095C334.876 387.303 334.748 387.545 334.677 387.821C334.609 388.091 334.618 388.365 334.704 388.641C334.789 388.917 334.937 389.15 335.147 389.339C335.36 389.523 335.601 389.648 335.871 389.716C336.146 389.783 336.421 389.773 336.698 389.688ZM329.722 387.104C329.281 387.24 328.844 387.258 328.413 387.157C327.98 387.051 327.598 386.852 327.268 386.558C326.941 386.259 326.708 385.886 326.571 385.44C326.436 385.003 326.423 384.567 326.533 384.133C326.643 383.698 326.847 383.315 327.145 382.984C327.443 382.653 327.806 382.421 328.234 382.288C328.675 382.152 329.11 382.137 329.539 382.244C329.971 382.345 330.352 382.544 330.684 382.843C331.014 383.136 331.248 383.506 331.386 383.952C331.524 384.398 331.54 384.837 331.434 385.27C331.328 385.699 331.125 386.079 330.827 386.41C330.532 386.736 330.164 386.967 329.722 387.104ZM329.447 386.214C329.724 386.129 329.954 385.982 330.139 385.773C330.328 385.563 330.457 385.323 330.525 385.053C330.591 384.779 330.582 384.503 330.496 384.227C330.411 383.95 330.264 383.72 330.055 383.535C329.846 383.346 329.603 383.218 329.329 383.152C329.059 383.084 328.785 383.092 328.509 383.178C328.233 383.263 328 383.411 327.811 383.621C327.626 383.829 327.5 384.071 327.434 384.345C327.366 384.615 327.375 384.889 327.46 385.165C327.546 385.442 327.693 385.674 327.903 385.864C328.112 386.048 328.351 386.174 328.621 386.242C328.896 386.309 329.171 386.299 329.447 386.214Z" fill="black"/>
</svg>
