<svg width="41" height="41" viewBox="0 0 41 41" fill="none" xmlns="http://www.w3.org/2000/svg">
<circle cx="20.5" cy="20.5" r="20.5" fill="#F2EFE7"/>
<g clip-path="url(#clip0_339_144)">
<path d="M28.0407 25.1191C27.6173 24.365 26.988 22.2311 26.988 19.4441C26.988 17.7704 26.3451 16.1652 25.2007 14.9817C24.0563 13.7982 22.5042 13.1333 20.8858 13.1333C19.2674 13.1333 17.7152 13.7982 16.5708 14.9817C15.4264 16.1652 14.7835 17.7704 14.7835 19.4441C14.7835 22.2319 14.1535 24.365 13.7301 25.1191C13.622 25.3109 13.5647 25.5287 13.564 25.7506C13.5632 25.9726 13.6191 26.1908 13.7259 26.3833C13.8328 26.5758 13.9868 26.7357 14.1725 26.847C14.3582 26.9583 14.5689 27.017 14.7835 27.0171H17.8964C18.0372 27.7296 18.4116 28.3699 18.9563 28.8297C19.5011 29.2896 20.1826 29.5407 20.8858 29.5407C21.5889 29.5407 22.2705 29.2896 22.8152 28.8297C23.3599 28.3699 23.7343 27.7296 23.8751 27.0171H26.988C27.2026 27.0168 27.4132 26.958 27.5988 26.8467C27.7844 26.7354 27.9383 26.5754 28.045 26.3829C28.1518 26.1905 28.2076 25.9723 28.2068 25.7504C28.206 25.5286 28.1487 25.3108 28.0407 25.1191ZM20.8858 28.2793C20.5073 28.2792 20.1382 28.1577 19.8292 27.9317C19.5202 27.7057 19.2865 27.3861 19.1604 27.0171H22.6112C22.485 27.3861 22.2514 27.7057 21.9424 27.9317C21.6334 28.1577 21.2643 28.2792 20.8858 28.2793ZM14.7835 25.755C15.3709 24.7105 16.004 22.2903 16.004 19.4441C16.004 18.1051 16.5183 16.821 17.4338 15.8742C18.3493 14.9274 19.591 14.3955 20.8858 14.3955C22.1805 14.3955 23.4222 14.9274 24.3377 15.8742C25.2532 16.821 25.7676 18.1051 25.7676 19.4441C25.7676 22.2879 26.3992 24.7081 26.988 25.755H14.7835Z" fill="#2E2C29"/>
<ellipse cx="29.2147" cy="13.8398" rx="2.0749" ry="2.17864" fill="#BA9447"/>
</g>
<defs>
<clipPath id="clip0_339_144">
<rect width="21.5789" height="22.6579" fill="white" transform="translate(9.71057 10.7896)"/>
</clipPath>
</defs>
</svg>
