<svg width="24" height="38" viewBox="0 0 24 38" fill="none" xmlns="http://www.w3.org/2000/svg">
<g clip-path="url(#clip0_72_200)">
<path d="M0 18.2058L11.933 0L9.25107 18.2058H0Z" fill="url(#paint0_linear_72_200)"/>
<path d="M2.41418 30.5412L9.25107 18.2058H0L2.41418 30.5412Z" fill="url(#paint1_linear_72_200)"/>
<path d="M10.3538 38L2.41418 30.5413L12.8704 26.6263L10.3538 38Z" fill="url(#paint2_linear_72_200)"/>
<path d="M18.5021 32.3132L12.8703 26.6263L10.3538 38L18.5021 32.3132Z" fill="url(#paint3_linear_72_200)"/>
<path d="M24 12.499L12.8704 26.6263L18.5021 32.3131L24 12.499Z" fill="url(#paint4_linear_72_200)"/>
<path d="M11.9331 0L24 12.4991L9.2511 18.2058L11.9331 0Z" fill="url(#paint5_linear_72_200)"/>
<path d="M12.8704 26.6263L9.2511 18.2058L24 12.499L12.8704 26.6263Z" fill="url(#paint6_linear_72_200)"/>
<path d="M2.41418 30.5412L9.25107 18.2058L12.8704 26.6263L2.41418 30.5412Z" fill="url(#paint7_linear_72_200)"/>
</g>
<defs>
<linearGradient id="paint0_linear_72_200" x1="15.7532" y1="3.87104" x2="0.605608" y2="18.8195" gradientUnits="userSpaceOnUse">
<stop offset="0.19" stop-color="#D97C5F"/>
<stop offset="0.35" stop-color="#DD8466"/>
<stop offset="0.9" stop-color="#EA9D7A"/>
</linearGradient>
<linearGradient id="paint1_linear_72_200" x1="9.25107" y1="24.3715" x2="0" y2="24.3715" gradientUnits="userSpaceOnUse">
<stop stop-color="#C65F36"/>
<stop offset="0.56" stop-color="#CF6C48"/>
<stop offset="0.61" stop-color="#D16F4C"/>
<stop offset="0.84" stop-color="#DB7F5F"/>
</linearGradient>
<linearGradient id="paint2_linear_72_200" x1="11.2714" y1="25.6885" x2="5.67176" y2="35.258" gradientUnits="userSpaceOnUse">
<stop offset="0.08" stop-color="#C65F36"/>
<stop offset="0.38" stop-color="#CD6844"/>
<stop offset="0.7" stop-color="#D87758"/>
<stop offset="0.79" stop-color="#DA7D5D"/>
<stop offset="0.93" stop-color="#E59370"/>
<stop offset="0.99" stop-color="#EA9D7A"/>
</linearGradient>
<linearGradient id="paint3_linear_72_200" x1="11.5392" y1="27.1172" x2="14.9295" y2="36.311" gradientUnits="userSpaceOnUse">
<stop offset="0.1" stop-color="#D87758"/>
<stop offset="0.45" stop-color="#D87859"/>
<stop offset="0.65" stop-color="#DC8060"/>
<stop offset="0.82" stop-color="#E38D6B"/>
<stop offset="0.93" stop-color="#EA9D7A"/>
</linearGradient>
<linearGradient id="paint4_linear_72_200" x1="18.4352" y1="12.499" x2="18.4352" y2="32.3131" gradientUnits="userSpaceOnUse">
<stop offset="0.19" stop-color="#D97C5F"/>
<stop offset="0.39" stop-color="#F58D6B"/>
</linearGradient>
<linearGradient id="paint5_linear_72_200" x1="19.8215" y1="5.16404" x2="6.23229" y2="12.906" gradientUnits="userSpaceOnUse">
<stop offset="0.04" stop-color="#DD8466"/>
<stop offset="0.23" stop-color="#EA9D7A"/>
<stop offset="0.48" stop-color="#FBC194"/>
</linearGradient>
<linearGradient id="paint6_linear_72_200" x1="18.3919" y1="10.4278" x2="12.474" y2="26.4802" gradientUnits="userSpaceOnUse">
<stop stop-color="#D97C5F"/>
<stop offset="0.67" stop-color="#F8A880"/>
</linearGradient>
<linearGradient id="paint7_linear_72_200" x1="11.5038" y1="22.1567" x2="1.03443" y2="28.1186" gradientUnits="userSpaceOnUse">
<stop offset="0.02" stop-color="#C65F28"/>
<stop offset="0.57" stop-color="#D87758"/>
<stop offset="0.91" stop-color="#DD8466"/>
</linearGradient>
<clipPath id="clip0_72_200">
<rect width="24" height="38" fill="white"/>
</clipPath>
</defs>
</svg>
