<svg width="26" height="19" viewBox="0 0 26 19" fill="none" xmlns="http://www.w3.org/2000/svg">
<path d="M24.6429 7.04582V14.4093M6.06743 10.1139V14.4093C6.06743 15.3857 6.80132 16.3222 8.10766 17.0126C9.41401 17.7031 11.1858 18.091 13.0332 18.091C14.8807 18.091 16.6525 17.7031 17.9588 17.0126C19.2651 16.3222 19.999 15.3857 19.999 14.4093V10.1139M23.9695 8.17734C24.1774 8.08042 24.3537 7.92118 24.4768 7.71934C24.5999 7.5175 24.6642 7.28193 24.6619 7.04182C24.6595 6.80171 24.5906 6.5676 24.4636 6.36849C24.3366 6.16938 24.1572 6.01403 23.9475 5.92167L13.9968 1.13052C13.6943 0.984662 13.3657 0.90918 13.0332 0.90918C12.7007 0.90918 12.3721 0.984662 12.0696 1.13052L2.12014 5.91676C1.91345 6.01245 1.73762 6.16974 1.61415 6.36939C1.49068 6.56904 1.42493 6.80239 1.42493 7.04092C1.42493 7.27944 1.49068 7.5128 1.61415 7.71244C1.73762 7.91209 1.91345 8.06938 2.12014 8.16507L12.0696 12.9611C12.3721 13.107 12.7007 13.1825 13.0332 13.1825C13.3657 13.1825 13.6943 13.107 13.9968 12.9611L23.9695 8.17734Z" stroke="#484848" stroke-width="1.5" stroke-linecap="round" stroke-linejoin="round"/>
</svg>
