<svg width="21" height="21" viewBox="0 0 21 21" fill="none" xmlns="http://www.w3.org/2000/svg">
<path d="M16.0818 7.65312H17.9797C18.4831 7.65312 18.9659 7.85309 19.3218 8.20902C19.6777 8.56496 19.8777 9.04771 19.8777 9.55108V19.9899L16.0818 16.194H10.3879C9.88451 16.194 9.40176 15.994 9.04582 15.6381C8.68988 15.2821 8.48992 14.7994 8.48992 14.296V13.347M12.2858 7.65312C12.2858 8.15649 12.0859 8.63925 11.7299 8.99518C11.374 9.35112 10.8913 9.55108 10.3879 9.55108H4.694L0.898071 13.347V2.90822C0.898071 2.40485 1.09803 1.92209 1.45397 1.56615C1.80991 1.21022 2.29266 1.01025 2.79603 1.01025H10.3879C10.8913 1.01025 11.374 1.21022 11.7299 1.56615C12.0859 1.92209 12.2858 2.40485 12.2858 2.90822V7.65312Z" stroke="#484848" stroke-width="1.5" stroke-linecap="round" stroke-linejoin="round"/>
</svg>
