<svg width="20" height="23" viewBox="0 0 20 23" fill="none" xmlns="http://www.w3.org/2000/svg">
<path d="M14.1545 3.1H16.333C16.9108 3.1 17.4649 3.32125 17.8734 3.71508C18.282 4.1089 18.5115 4.64305 18.5115 5.2V19.9C18.5115 20.457 18.282 20.9911 17.8734 21.3849C17.4649 21.7787 16.9108 22 16.333 22H3.26221C2.68444 22 2.13034 21.7787 1.7218 21.3849C1.31326 20.9911 1.08374 20.457 1.08374 19.9V5.2C1.08374 4.64305 1.31326 4.1089 1.7218 3.71508C2.13034 3.32125 2.68444 3.1 3.26221 3.1H5.44068M9.79761 10.45H14.1545M9.79761 15.7H14.1545M5.44068 10.45H5.45157M5.44068 15.7H5.45157M6.52991 1H13.0653C13.6669 1 14.1545 1.4701 14.1545 2.05V4.15C14.1545 4.7299 13.6669 5.2 13.0653 5.2H6.52991C5.92834 5.2 5.44068 4.7299 5.44068 4.15V2.05C5.44068 1.4701 5.92834 1 6.52991 1Z" stroke="#4B4023" stroke-width="2" stroke-linecap="round" stroke-linejoin="round"/>
</svg>
