<svg width="22" height="23" viewBox="0 0 22 23" fill="none" xmlns="http://www.w3.org/2000/svg">
<path d="M13.9094 21.523V13.0826C13.9094 12.8028 13.7961 12.5344 13.5944 12.3365C13.3926 12.1387 13.119 12.0275 12.8337 12.0275H8.53051C8.24519 12.0275 7.97156 12.1387 7.76981 12.3365C7.56806 12.5344 7.45472 12.8028 7.45472 13.0826V21.523M1 9.91741C0.999925 9.61046 1.06813 9.30719 1.19987 9.02876C1.3316 8.75032 1.52369 8.50343 1.76273 8.30529L9.29324 1.97603C9.68158 1.65414 10.1736 1.47754 10.6821 1.47754C11.1905 1.47754 11.6826 1.65414 12.0709 1.97603L19.6014 8.30529C19.8405 8.50343 20.0326 8.75032 20.1643 9.02876C20.296 9.30719 20.3642 9.61046 20.3642 9.91741V19.4129C20.3642 19.9725 20.1375 20.5092 19.734 20.905C19.3305 21.3007 18.7832 21.523 18.2126 21.523H3.15157C2.58094 21.523 2.03368 21.3007 1.63018 20.905C1.22668 20.5092 1 19.9725 1 19.4129V9.91741Z" stroke="#484848" stroke-width="1.5" stroke-linecap="round" stroke-linejoin="round"/>
</svg>
